<svg xmlns="http://www.w3.org/2000/svg" xmlns:xlink="http://www.w3.org/1999/xlink" width="1080" zoomAndPan="magnify" viewBox="0 0 810 1012.49997" height="1350" preserveAspectRatio="xMidYMid meet" version="1.0"><path stroke-linecap="butt" transform="matrix(0.749828, 0, 0, 0.749296, 51.805762, 81.309785)" fill="none" stroke-linejoin="miter" d="M 151.116523 593.22202 L 159.644519 608.861703 " stroke="#da8250" stroke-width="2" stroke-opacity="1" stroke-miterlimit="4"/><path stroke-linecap="butt" transform="matrix(0.749828, 0, 0, 0.749296, 51.805762, 81.309785)" fill="none" stroke-linejoin="miter" d="M 159.644519 608.861703 C 140.58807 607.38636 126.70989 613.871615 118.00477 628.312256 C 106.507345 647.371817 107.643021 669.684431 117.603637 689.150624 C 128.814539 711.067033 144.031567 729.82944 163.254721 745.43263 C 164.791532 746.673379 165.932418 748.336398 166.67738 750.411263 C 167.77659 753.429722 168.063114 756.599364 167.531743 759.914977 C 163.020292 788.191524 160.467624 816.796505 159.878948 845.729919 C 159.363205 871.743925 163.999683 897.810064 176.59111 920.200877 C 185.39521 935.882266 196.038274 949.556562 208.5203 961.21334 C 209.015205 961.68253 209.369453 962.235132 209.588253 962.876359 C 209.807054 963.517586 209.859149 964.174453 209.749749 964.841746 C 208.702634 971.108046 208.869339 977.504676 210.260282 984.042064 C 213.109894 997.455699 224.982405 1007.631919 237.131022 1013.903432 C 258.964149 1025.169217 283.469764 1026.284848 307.746159 1023.360227 C 313.02341 1022.719 319.530109 1020.92565 327.255838 1017.980176 C 340.295283 1012.996331 350.146499 1007.225288 361.847096 1001.031973 " stroke="#de9c6d" stroke-width="2" stroke-opacity="1" stroke-miterlimit="4"/><path stroke-linecap="butt" transform="matrix(0.749828, 0, 0, 0.749296, 51.805762, 81.309785)" fill="none" stroke-linejoin="miter" d="M 361.847096 1001.031973 L 419.308178 1006.959413 " stroke="#deaa8a" stroke-width="2" stroke-opacity="1" stroke-miterlimit="4"/><path stroke-linecap="butt" transform="matrix(0.749828, 0, 0, 0.749296, 51.805762, 81.309785)" fill="none" stroke-linejoin="miter" d="M 419.308178 1006.959413 C 422.246351 1011.818141 425.392905 1016.421421 428.75305 1020.77968 C 430.941052 1023.600036 432.644567 1026.290061 433.858387 1028.854969 C 440.005628 1041.721216 453.571237 1050.359534 467.157683 1053.967087 C 498.409635 1062.276972 529.588653 1060.561821 560.689529 1048.816418 C 569.446743 1045.521659 578.084139 1042.456281 586.627763 1038.395176 C 591.415318 1036.122209 595.431864 1032.201862 599.943314 1029.412785 C 601.719763 1028.312794 603.642078 1027.66114 605.71547 1027.452611 C 615.879257 1026.425605 625.881548 1025.570636 635.685878 1023.375867 C 675.924264 1014.35177 707.994112 985.303665 726.540027 948.597328 C 727.253732 947.184544 728.029952 945.797825 728.858267 944.426746 C 729.759515 942.93055 730.556573 941.517765 731.239021 940.177966 " stroke="#de9c6d" stroke-width="2" stroke-opacity="1" stroke-miterlimit="4"/><path stroke-linecap="butt" transform="matrix(0.749828, 0, 0, 0.749296, 51.805762, 81.309785)" fill="none" stroke-linejoin="miter" d="M 731.239021 940.177966 L 746.096591 936.273258 " stroke="#da8250" stroke-width="2" stroke-opacity="1" stroke-miterlimit="4"/><path stroke-linecap="butt" transform="matrix(0.749828, 0, 0, 0.749296, 51.805762, 81.309785)" fill="none" stroke-linejoin="miter" d="M 746.096591 936.273258 C 764.788374 935.168054 781.469279 930.825435 798.535689 922.718866 C 807.292904 918.55871 813.39326 915.399494 816.836757 913.246431 C 823.62998 909.01329 831.756842 903.143196 841.217343 895.646574 C 852.329264 886.841433 858.533811 878.046718 866.520015 867.281402 C 880.273166 848.701459 891.260059 829.250906 899.860987 807.235445 C 903.544123 797.846422 907.388754 785.157426 911.39488 769.17367 C 918.130798 742.367253 927.106813 681.059694 887.259142 674.475388 C 864.509138 670.711437 845.588136 692.30984 838.586532 711.025327 C 835.466025 719.366492 831.642233 731.429901 827.120363 747.220768 C 825.375172 753.304604 821.582636 758.731574 819.311282 764.815411 C 814.435165 777.890186 807.376256 789.849331 798.129346 800.698058 C 793.35221 806.302277 787.397721 811.187072 782.01107 816.275182 C 780.765993 817.448158 777.515248 819.304067 772.253626 821.842909 " stroke="#de9c6d" stroke-width="2" stroke-opacity="1" stroke-miterlimit="4"/><path stroke-linecap="butt" transform="matrix(0.749828, 0, 0, 0.749296, 51.805762, 81.309785)" fill="none" stroke-linejoin="miter" d="M 772.253626 821.842909 C 766.622127 816.947688 761.568886 811.26527 757.099112 804.790441 " stroke="#da8250" stroke-width="2" stroke-opacity="1" stroke-miterlimit="4"/><path stroke-linecap="butt" transform="matrix(0.749828, 0, 0, 0.749296, 51.805762, 81.309785)" fill="none" stroke-linejoin="miter" d="M 757.099112 804.790441 C 756.218702 799.478162 755.541464 794.051192 755.062187 788.499105 C 751.983357 751.975231 742.929199 717.223855 727.910133 684.25019 C 722.523482 672.442229 715.83445 659.753233 707.837826 646.172774 C 704.383909 640.313106 701.867708 634.834004 700.289221 629.740681 C 699.169173 626.133127 700.41425 623.49002 704.024452 621.821788 C 728.113304 610.634201 750.644508 596.819147 770.247958 578.890857 C 784.891938 565.492862 795.503744 548.893945 805.255979 531.544323 C 809.001629 524.892244 811.726211 518.156754 813.424517 511.332639 C 813.72667 510.117957 813.268231 509.377679 812.043992 509.106591 C 799.223347 506.286235 786.41312 503.299055 773.623731 500.145052 C 758.547361 496.422808 762.345106 478.124378 777.994525 480.475544 C 791.284028 482.466997 804.276588 485.078824 816.972205 488.316239 C 817.331662 488.410077 817.69112 488.43093 818.055786 488.373584 C 818.425663 488.321452 818.764282 488.196334 819.076854 488.003445 C 819.394635 487.810555 819.660321 487.560321 819.873911 487.257953 C 820.092711 486.955586 820.238578 486.627153 820.321931 486.262227 C 822.582865 476.106859 823.947761 465.873293 824.411409 455.561529 C 824.427038 455.253948 824.374943 454.951581 824.260333 454.65964 C 824.145723 454.372913 823.979019 454.117465 823.760218 453.893296 C 823.536209 453.67434 823.280942 453.507517 822.989208 453.392826 C 822.692265 453.283348 822.390113 453.231216 822.077541 453.246856 C 800.437166 454.325994 779.515706 456.244462 759.307952 459.002259 C 752.587662 459.919787 744.466009 457.558195 744.012781 449.681008 C 743.68979 444.097641 747.810526 440.735109 752.775205 439.786302 C 775.655447 435.40719 798.74407 432.868348 822.030655 432.159349 C 822.603703 432.14371 823.109028 431.945607 823.541418 431.565041 C 823.973809 431.184476 824.239495 430.710072 824.333266 430.136617 C 824.802124 427.253702 824.807333 424.334295 824.348895 421.378394 C 821.634731 403.794177 817.784891 387.476774 812.804583 372.426186 C 806.021779 351.906922 799.18167 332.962052 792.279047 315.586364 C 790.60158 311.353223 790.460922 307.057523 791.643485 302.64192 C 795.738173 287.111714 799.259813 271.086252 802.208406 254.56032 C 809.689286 212.515638 810.569696 170.278067 804.854845 127.842394 C 802.166729 107.880945 797.42085 89.134178 790.617208 71.591666 C 783.77189 53.99181 772.659969 45.588086 753.009634 48.794221 C 719.053937 54.320243 686.176613 65.914461 654.356823 82.080681 C 643.870045 87.398173 633.612486 92.939834 623.578938 98.695237 C 599.297333 112.598916 577.41732 127.972724 557.949318 144.816663 C 556.094726 146.417124 553.453496 146.125183 551.213399 145.765471 C 509.188146 139.014341 467.95474 134.661295 427.507973 132.711548 C 409.832049 131.872219 388.196883 132.403968 362.592059 134.312009 C 357.73678 134.671722 354.642321 134.035708 351.110261 131.00161 C 335.549404 117.666173 320.983567 103.580032 304.276614 91.600034 C 283.766707 76.883093 263.397457 63.375619 240.67871 52.422628 C 225.774254 45.22316 210.765607 38.894302 195.652769 33.436053 C 177.851816 27.013356 154.726726 21.22146 139.712869 34.88533 C 135.399381 38.816104 131.299483 45.40041 127.418386 54.633037 C 124.475003 61.665681 121.656649 68.974626 118.973742 76.570299 C 97.75013 136.496352 89.727458 197.094911 94.916147 258.35555 C 95.228719 262.083008 95.707995 265.831319 96.364396 269.605695 C 97.234387 274.626034 96.577986 279.015571 94.400404 282.769095 C 88.487591 292.93489 82.955073 302.845235 77.797642 312.489707 C 65.820939 334.875307 56.751153 358.168008 50.598702 382.367811 C 49.749549 385.688637 49.150453 389.040743 48.796205 392.424128 C 48.723272 393.034075 48.994168 393.367722 49.603682 393.419854 C 59.220469 394.342595 69.702037 395.630263 81.053596 397.293282 C 86.903895 398.148252 95.926795 399.88947 97.062472 406.661453 C 98.974369 417.922024 90.529726 420.335749 81.67353 419.261824 C 69.384256 417.770841 57.829525 416.81682 47.019757 416.399762 C 46.707185 416.384122 46.43629 416.488387 46.21228 416.707342 C 45.983061 416.926298 45.868451 417.192173 45.868451 417.504966 C 45.837194 426.748019 46.269585 436.616659 47.160414 447.1161 C 47.181252 447.329842 47.275024 447.501879 47.452148 447.626996 C 47.629271 447.757327 47.822024 447.788606 48.035615 447.736474 C 57.214801 445.390521 66.487759 443.456414 75.854488 441.934151 C 78.943738 441.433682 81.574549 441.876806 83.741712 443.258311 C 88.518848 446.29241 89.732668 454.445898 84.710684 458.209848 C 82.757111 459.669552 80.714977 460.717411 78.579071 461.353425 C 70.405323 463.777576 61.96068 466.123528 53.245141 468.386069 C 53.031551 468.438201 52.838798 468.532039 52.656465 468.667583 C 52.479341 468.797914 52.333474 468.959524 52.218865 469.1472 C 52.104255 469.334876 52.031322 469.538192 51.994855 469.757148 C 51.958388 469.976103 51.968807 470.195059 52.015693 470.408801 C 64.836339 526.127779 104.751734 563.720365 151.116523 593.22202 " stroke="#de9c6d" stroke-width="2" stroke-opacity="1" stroke-miterlimit="4"/><path stroke-linecap="butt" transform="matrix(0.749828, 0, 0, 0.749296, 51.805762, 81.309785)" fill="none" stroke-linejoin="miter" d="M 757.099112 804.790441 C 757.145998 817.797445 757.442941 831.430035 756.338521 843.738466 C 754.655844 862.412248 751.363423 880.814941 746.456049 898.962187 C 742.668723 912.95449 737.599853 926.691346 731.239021 940.177966 " stroke="#fbb170" stroke-width="2" stroke-opacity="1" stroke-miterlimit="4"/><path stroke-linecap="butt" transform="matrix(0.749828, 0, 0, 0.749296, 51.805762, 81.309785)" fill="none" stroke-linejoin="miter" d="M 419.308178 1006.959413 C 426.372297 1005.932407 433.425996 1006.078377 440.469276 1007.397324 C 443.282421 1007.92386 445.902813 1008.919587 448.330452 1010.368864 C 451.596826 1012.34989 455.139304 1013.574999 458.957887 1014.038976 C 469.069579 1015.264085 479.910605 1015.561239 491.475754 1014.930438 C 525.895099 1013.01197 551.614533 990.532532 573.01006 963.470667 C 590.019165 941.981742 598.932666 912.964917 601.000848 886.075088 C 602.662687 864.549671 601.219648 843.759319 596.676941 823.698818 C 592.926081 807.188526 583.903181 784.531838 570.087515 774.684051 C 563.528721 770.012999 557.131422 765.096925 550.885199 759.930617 " stroke="#ffd9ab" stroke-width="2" stroke-opacity="1" stroke-miterlimit="4"/><path stroke-linecap="butt" transform="matrix(0.749828, 0, 0, 0.749296, 51.805762, 81.309785)" fill="none" stroke-linejoin="miter" d="M 550.885199 759.930617 C 553.083619 758.695082 554.578754 757.188459 555.365392 755.405535 C 555.573773 754.915492 555.584192 754.425448 555.396649 753.924978 C 554.599592 751.839687 553.312839 750.077616 551.53639 748.633552 C 527.374604 729.031816 511.938776 695.886114 523.920688 665.654606 C 531.109835 647.543853 544.696281 636.882803 564.685236 633.676667 C 583.481209 630.658209 603.944231 640.229695 617.171219 653.330536 C 621.34926 657.469839 625.433529 661.942788 629.413608 666.744171 C 630.429465 667.958853 631.664123 668.646999 633.117581 668.813822 C 633.581229 668.865955 634.034458 668.819036 634.477268 668.673065 C 634.920078 668.527095 635.310792 668.2925 635.654621 667.974493 C 635.99324 667.656486 636.248507 667.281133 636.425631 666.848436 C 636.597545 666.415738 636.675688 665.962187 636.649641 665.49821 C 636.154735 655.806819 623.00589 644.322079 615.660457 638.733498 " stroke="#fbb170" stroke-width="2" stroke-opacity="1" stroke-miterlimit="4"/><path stroke-linecap="butt" transform="matrix(0.749828, 0, 0, 0.749296, 51.805762, 81.309785)" fill="none" stroke-linejoin="miter" d="M 615.660457 638.733498 C 624.417671 632.87383 631.075447 625.351143 635.638992 616.160222 C 647.277075 592.789322 650.652849 566.321765 644.260759 540.985478 C 640.7287 527.029668 636.852812 513.058217 629.226065 500.953103 C 625.131377 494.446994 620.666812 488.316239 615.832371 482.560835 C 612.800426 478.948068 609.200643 475.971315 605.033022 473.630576 C 598.755542 470.080368 592.191538 466.738689 585.335801 463.610752 " stroke="#ffd9ab" stroke-width="2" stroke-opacity="1" stroke-miterlimit="4"/><path stroke-linecap="butt" transform="matrix(0.749828, 0, 0, 0.749296, 51.805762, 81.309785)" fill="none" stroke-linejoin="miter" d="M 585.335801 463.610752 C 598.901409 460.237794 609.101662 453.424105 615.926143 443.164473 C 629.429236 422.843311 625.0897 396.90229 607.80449 380.266881 C 595.353721 368.271244 577.95911 363.464648 562.116939 371.164585 C 554.599592 374.819058 547.535473 381.064504 540.924584 389.900925 " stroke="#de9c6d" stroke-width="2" stroke-opacity="1" stroke-miterlimit="4"/><path stroke-linecap="butt" transform="matrix(0.749828, 0, 0, 0.749296, 51.805762, 81.309785)" fill="none" stroke-linejoin="miter" d="M 540.924584 389.900925 C 540.30465 378.353626 537.804077 368.057501 533.428074 359.012551 C 529.786615 351.48465 525.10846 344.498925 519.388399 338.055376 C 507.307507 324.422785 492.267602 312.406295 474.284315 302.000693 C 450.648692 288.342036 426.216011 283.191367 399.126471 285.448694 C 388.186464 286.371436 378.095611 288.013603 368.864329 290.380408 C 355.512312 293.800285 343.405371 300.650467 331.459926 308.147088 C 320.556386 315.007696 311.002114 322.546023 302.797109 330.772496 C 294.800485 338.790441 290.143168 348.612162 288.825158 360.227233 " stroke="#ffd9ab" stroke-width="2" stroke-opacity="1" stroke-miterlimit="4"/><path stroke-linecap="butt" transform="matrix(0.749828, 0, 0, 0.749296, 51.805762, 81.309785)" fill="none" stroke-linejoin="miter" d="M 288.825158 360.227233 C 286.084947 357.933413 283.303059 355.738644 280.484705 353.6325 C 273.128853 348.142971 264.960315 345.619769 255.979091 346.052467 C 247.711571 346.469525 240.2359 349.117845 233.557287 354.002639 C 212.766065 369.25133 204.878841 394.227904 215.756333 417.786481 C 220.872089 428.864589 229.900199 435.183021 240.67871 440.797668 " stroke="#de9c6d" stroke-width="2" stroke-opacity="1" stroke-miterlimit="4"/><path stroke-linecap="butt" transform="matrix(0.749828, 0, 0, 0.749296, 51.805762, 81.309785)" fill="none" stroke-linejoin="miter" d="M 240.67871 440.797668 C 226.685921 447.997135 215.469809 456.432138 207.025166 466.097462 C 188.26045 487.5916 177.669482 513.558687 175.252262 544.00915 C 173.340365 568.156821 179.628264 589.484136 194.110749 607.991094 C 194.454578 608.423792 194.548349 608.908623 194.392063 609.435159 L 193.845063 611.254575 " stroke="#ffd9ab" stroke-width="2" stroke-opacity="1" stroke-miterlimit="4"/><path stroke-linecap="butt" transform="matrix(0.749828, 0, 0, 0.749296, 51.805762, 81.309785)" fill="none" stroke-linejoin="miter" d="M 193.845063 611.254575 L 151.116523 593.22202 " stroke="#fbb170" stroke-width="2" stroke-opacity="1" stroke-miterlimit="4"/><path stroke-linecap="butt" transform="matrix(0.749828, 0, 0, 0.749296, 51.805762, 81.309785)" fill="none" stroke-linejoin="miter" d="M 540.924584 389.900925 C 535.834876 398.06484 532.70916 407.6259 531.557854 418.578891 C 530.562835 428.119098 532.604969 436.517608 537.689467 443.769208 C 548.921207 459.815523 564.805055 466.431109 585.335801 463.610752 " stroke="#deaa8a" stroke-width="2" stroke-opacity="1" stroke-miterlimit="4"/><path stroke-linecap="butt" transform="matrix(0.749828, 0, 0, 0.749296, 51.805762, 81.309785)" fill="none" stroke-linejoin="miter" d="M 615.660457 638.733498 C 602.324068 629.010829 586.612135 622.739316 569.821829 623.333624 C 545.597529 624.172953 527.890347 635.178077 516.700284 656.348995 C 514.324739 660.842797 512.636853 665.425224 511.641833 670.106703 C 506.567754 694.223094 511.188604 716.196849 525.504384 736.033181 C 530.859778 743.456817 536.663191 749.843021 542.919832 755.18658 C 545.014062 756.969503 547.670921 758.554325 550.885199 759.930617 " stroke="#fbbf8e" stroke-width="2" stroke-opacity="1" stroke-miterlimit="4"/><path stroke-linecap="butt" transform="matrix(0.749828, 0, 0, 0.749296, 51.805762, 81.309785)" fill="none" stroke-linejoin="miter" d="M 361.847096 1001.031973 C 352.23031 999.18649 342.707294 997.90925 333.278051 997.205464 C 320.7283 996.26187 312.528505 995.495525 308.678665 994.901217 C 283.016535 990.939164 258.083739 984.2141 233.880277 974.720813 C 229.170865 972.87533 223.450805 969.455453 216.720096 964.466394 C 213.47456 962.063096 210.72393 959.2271 208.473415 955.974046 C 204.034898 949.540923 199.695362 943.139079 195.465226 936.768515 C 184.655458 920.482391 176.726558 902.371638 171.673317 882.436255 C 167.7818 867.125005 167.797429 850.75547 169.401963 835.256544 C 171.141945 818.318767 173.715451 802.194254 177.117272 786.883004 C 180.717055 770.659439 185.488982 754.321184 191.433052 737.868237 C 198.512799 718.323846 204.519384 698.409316 210.713511 678.395735 C 215.777171 662.067906 218.590316 647.794088 219.163364 635.563856 " stroke="#ffd9ab" stroke-width="2" stroke-opacity="1" stroke-miterlimit="4"/><path stroke-linecap="butt" transform="matrix(0.749828, 0, 0, 0.749296, 51.805762, 81.309785)" fill="none" stroke-linejoin="miter" d="M 219.163364 635.563856 C 219.225878 634.109365 219.215459 632.748713 219.132107 631.487112 C 218.850792 627.363449 214.756104 623.781961 211.505359 621.71231 C 205.738413 618.042198 199.851648 614.554548 193.845063 611.254575 " stroke="#fbbf8e" stroke-width="2" stroke-opacity="1" stroke-miterlimit="4"/><path stroke-linecap="butt" transform="matrix(0.749828, 0, 0, 0.749296, 51.805762, 81.309785)" fill="none" stroke-linejoin="miter" d="M 240.67871 440.797668 C 246.357094 441.939365 250.279868 442.64315 252.45745 442.914238 C 269.482184 445.030809 285.136813 435.865954 295.170361 422.452319 C 300.421565 415.430102 302.828366 406.739651 302.390766 396.391394 C 301.802089 382.117576 297.28022 370.064594 288.825158 360.227233 " stroke="#deaa8a" stroke-width="2" stroke-opacity="1" stroke-miterlimit="4"/><path stroke-linecap="butt" transform="matrix(0.749828, 0, 0, 0.749296, 51.805762, 81.309785)" fill="none" stroke-linejoin="miter" d="M 219.163364 635.563856 C 216.381477 636.908869 213.781923 636.622141 211.364702 634.703673 C 198.200228 624.282431 181.831894 614.94554 165.463561 610.853156 C 163.056759 610.248422 161.118815 609.586342 159.644519 608.861703 " stroke="#fbb170" stroke-width="2" stroke-opacity="1" stroke-miterlimit="4"/><path stroke-linecap="butt" transform="matrix(0.749828, 0, 0, 0.749296, 51.805762, 81.309785)" fill="none" stroke-linejoin="miter" d="M 746.096591 936.273258 C 748.649259 929.475209 750.488222 922.484271 753.025262 915.670582 C 754.92153 910.577259 756.609417 904.873987 758.078503 898.555555 C 760.818714 886.731955 762.95983 875.836309 764.507059 865.879044 C 766.48147 853.247393 766.762785 839.646082 767.617147 826.717277 C 767.648404 826.26894 767.830738 825.893587 768.164147 825.596433 L 772.253626 821.842909 " stroke="#fbb170" stroke-width="2" stroke-opacity="1" stroke-miterlimit="4"/><path stroke-linecap="butt" transform="matrix(0.749828, 0, 0, 0.749296, 51.805762, 81.309785)" fill="none" stroke-linejoin="miter" d="M 170.803326 208.209512 L 175.017833 208.782967 C 175.309566 208.824673 175.408547 208.709982 175.314776 208.438894 C 175.262681 208.266858 175.241843 208.089608 175.252262 207.912358 C 175.304357 207.323264 175.585671 206.880139 176.090995 206.588199 C 177.919539 205.54034 179.852274 204.71665 181.894408 204.117129 C 183.785467 203.5541 185.61922 202.709557 187.406088 201.578287 C 189.239841 200.426163 191.052757 199.247974 192.834415 198.048932 C 193.652311 197.506756 194.470206 196.938514 195.277683 196.33378 C 200.575772 192.403006 206.613614 188.983128 213.391208 186.063721 C 214.922809 185.401641 216.615905 184.937664 218.460078 184.666576 C 220.048983 184.437194 221.585794 183.868952 223.0653 182.951424 C 227.550702 180.214479 232.145505 177.680851 236.854917 175.345325 C 240.845415 173.374725 244.695255 171.357206 248.399229 169.292767 C 252.259488 167.155344 256.151005 165.22645 260.084198 163.506085 C 260.594731 163.276703 261.011494 162.927416 261.344903 162.463439 C 262.079447 161.405154 262.996323 160.544971 264.085114 159.893318 C 264.600858 159.580524 264.840496 159.126973 264.79882 158.522239 C 264.715467 157.354476 264.507086 156.249272 264.178886 155.211839 C 264.178886 155.201413 263.91841 154.711369 263.397457 153.746922 C 263.105723 153.230813 263.006742 152.631291 263.090095 151.958785 C 263.126561 151.573006 263.017161 151.244573 262.746266 150.963059 C 262.246151 150.452162 262.178428 149.664965 262.543094 148.596253 " stroke="#ffcda4" stroke-width="2" stroke-opacity="1" stroke-miterlimit="4"/><path stroke-linecap="butt" transform="matrix(0.749828, 0, 0, 0.749296, 51.805762, 81.309785)" fill="none" stroke-linejoin="miter" d="M 262.543094 148.596253 C 264.225772 148.815209 265.746953 147.991519 265.684439 146.172102 C 265.423963 138.764106 261.501189 132.179799 256.75531 126.22108 C 238.454242 103.162974 216.219981 84.348435 189.724327 73.254686 C 176.559853 67.749518 158.071242 65.116838 148.193979 78.358436 C 144.750482 82.987782 141.708118 87.86215 139.077307 92.986753 C 121.693115 126.752829 114.457083 164.87195 114.535226 203.199601 C 114.556064 211.973463 115.238512 220.778604 116.57736 229.620239 C 118.145428 239.885084 121.505573 250.999686 134.190771 241.224884 C 144.354558 233.373763 154.487087 225.204635 164.59357 216.7175 C 168.047486 213.803306 170.115668 210.96731 170.803326 208.209512 " stroke="#fbb170" stroke-width="2" stroke-opacity="1" stroke-miterlimit="4"/><path stroke-linecap="butt" transform="matrix(0.749828, 0, 0, 0.749296, 51.805762, 81.309785)" fill="none" stroke-linejoin="miter" d="M 262.543094 148.596253 C 260.860417 147.350292 259.417378 145.828029 258.203559 144.024253 C 240.913139 118.255268 217.340029 95.228441 188.880384 82.247504 C 177.523615 77.070769 161.822101 73.5362 153.278477 85.312882 C 149.360913 90.698146 145.964301 96.510895 143.088642 102.756342 C 127.69449 136.157492 120.635582 172.368572 121.911916 211.384368 C 122.161973 218.891416 123.308069 226.518368 125.350203 234.254798 C 125.39188 234.421621 125.459603 234.578018 125.542956 234.729202 C 125.626308 234.875172 125.725289 235.010716 125.845108 235.135834 C 125.964928 235.260951 126.095166 235.365216 126.241032 235.453841 C 126.386899 235.542465 126.543185 235.615451 126.70468 235.66237 C 126.871385 235.714502 127.03809 235.740568 127.210004 235.750994 C 127.381919 235.756208 127.548624 235.740568 127.715329 235.704075 C 127.882033 235.667583 128.043529 235.615451 128.194605 235.537252 C 128.350891 235.459054 128.491548 235.365216 128.616577 235.250525 C 139.15545 226.017898 149.626599 217.932182 160.019605 210.993376 C 162.587902 209.299077 167.906829 205.780148 170.803326 208.209512 " stroke="#fbb387" stroke-width="2" stroke-opacity="1" stroke-miterlimit="4"/><path stroke-linecap="butt" transform="matrix(0.749828, 0, 0, 0.749296, 51.805762, 81.309785)" fill="none" stroke-linejoin="miter" d="M 652.476183 155.613258 C 651.903135 157.15116 651.095659 158.683849 650.048544 160.221751 C 648.8764 161.921263 648.121019 163.490445 647.792819 164.918869 C 646.339361 171.12261 647.969943 176.523514 652.679355 181.116368 C 654.554785 182.951424 656.492729 184.682216 658.498396 186.298316 C 658.889111 186.621536 659.33713 186.793573 659.837245 186.814426 C 661.233398 186.866558 662.358656 187.476506 663.213018 188.649482 C 663.541218 189.113459 663.994447 189.410613 664.567495 189.535731 C 665.520839 189.765113 666.234544 190.401126 666.71382 191.448985 C 666.922201 191.897323 667.255611 192.18405 667.724469 192.319594 C 669.094574 192.7158 670.313603 193.482144 671.381556 194.623841 C 671.631614 194.894929 671.938976 195.061752 672.314062 195.119098 C 673.590396 195.3172 674.700025 195.890655 675.642949 196.834249 C 676.309769 197.496329 677.023474 198.106277 677.789275 198.653666 C 679.998114 200.238487 682.035039 202.141315 683.889631 204.346511 C 684.22304 204.753142 684.639802 205.034657 685.134707 205.191054 C 685.759851 205.394369 686.265175 205.754082 686.661099 206.264978 C 688.052043 208.079182 689.739929 209.288651 691.735178 209.888172 C 692.032121 209.971583 692.271759 210.138407 692.448883 210.383428 C 693.850246 212.317536 695.574599 213.818945 697.632363 214.898084 C 702.83668 217.635028 708.55674 221.748265 714.792544 227.237794 C 714.927992 227.352485 715.000925 227.321205 715.011344 227.143956 C 715.021763 226.987559 714.985297 226.841588 714.901944 226.706044 C 714.589373 226.148229 714.683144 226.070031 715.183259 226.476662 C 719.548842 230.073789 724.388493 232.404102 729.697001 233.462388 " stroke="#ffcda4" stroke-width="2" stroke-opacity="1" stroke-miterlimit="4"/><path stroke-linecap="butt" transform="matrix(0.749828, 0, 0, 0.749296, 51.805762, 81.309785)" fill="none" stroke-linejoin="miter" d="M 729.697001 233.462388 C 727.884085 237.163779 728.201866 240.614936 730.650344 243.810645 C 733.364508 247.355639 736.604833 251.010112 740.355693 254.763636 C 747.128078 261.530406 753.535796 268.57869 759.65178 275.861569 C 765.814651 283.191367 771.899378 277.029332 774.373903 270.742179 C 788.158312 235.782274 789.653446 195.291134 786.647549 156.968697 C 785.829653 146.479683 784.282424 136.110573 782.01107 125.86658 C 778.291468 109.027855 769.747843 89.066406 749.477574 88.242716 C 736.047414 87.695327 721.45032 92.783437 709.286074 99.03931 C 691.589311 108.146819 676.143064 119.313553 662.947332 132.539512 C 658.498396 137.012461 655.065318 141.323801 652.648098 145.483956 C 650.579915 149.034164 650.522611 152.407123 652.476183 155.613258 " stroke="#fbb170" stroke-width="2" stroke-opacity="1" stroke-miterlimit="4"/><path stroke-linecap="butt" transform="matrix(0.749828, 0, 0, 0.749296, 51.805762, 81.309785)" fill="none" stroke-linejoin="miter" d="M 729.697001 233.462388 C 732.801879 234.416408 735.667118 236.214972 738.303139 238.858078 C 747.659449 248.257528 756.124931 257.464088 763.699583 266.477759 C 763.84024 266.655009 764.022573 266.780126 764.230954 266.858324 C 764.444545 266.936523 764.663345 266.952162 764.887355 266.91567 C 765.111365 266.879177 765.309327 266.785339 765.48645 266.639369 C 765.663574 266.498612 765.793813 266.316149 765.877165 266.10762 C 771.602435 251.197788 775.269942 235.698862 776.874476 219.595202 C 779.760554 190.781692 778.562363 162.280976 773.279903 134.093054 C 771.894169 126.711123 769.945805 119.694119 767.445233 113.04204 C 763.413059 102.34971 755.973854 97.39193 745.132829 98.168701 C 738.266672 98.674384 731.489078 100.269632 724.800045 102.944018 C 698.283553 113.573789 677.606941 130.579338 658.915159 152.422762 C 657.414815 154.17962 655.26328 155.243119 652.476183 155.613258 " stroke="#fbb387" stroke-width="2" stroke-opacity="1" stroke-miterlimit="4"/><path stroke-linecap="butt" transform="matrix(0.749828, 0, 0, 0.749296, 51.805762, 81.309785)" fill="none" stroke-linejoin="miter" d="M 148.720141 387.007584 C 148.391941 386.809481 148.027274 386.741709 147.63135 386.804268 C 144.896348 387.252606 142.953195 388.811361 141.812308 391.485747 C 134.222028 409.226361 127.277728 426.643754 120.97941 443.737928 C 120.21361 445.838859 119.828105 448.466326 121.849401 450.05636 C 127.684071 454.581442 130.78374 448.330782 132.492465 443.972523 C 139.58784 426.007741 145.792387 409.184655 151.100895 393.508479 C 151.304066 392.919384 151.397838 392.309437 151.392628 391.683849 C 151.382209 391.053049 151.272809 390.448314 151.054009 389.854006 C 150.840419 389.264912 150.527847 388.722736 150.131923 388.237906 C 149.730789 387.747862 149.261932 387.336017 148.720141 387.007584 " stroke="#fbb170" stroke-width="2" stroke-opacity="1" stroke-miterlimit="4"/><path stroke-linecap="butt" transform="matrix(0.749828, 0, 0, 0.749296, 51.805762, 81.309785)" fill="none" stroke-linejoin="miter" d="M 174.924061 391.657783 C 174.793823 391.230298 174.585442 390.839306 174.304128 390.495233 C 174.022813 390.145947 173.684194 389.85922 173.293479 389.640264 C 172.897555 389.421308 172.480793 389.285765 172.032774 389.228419 C 171.584755 389.171074 171.141945 389.19714 170.709554 389.311831 C 168.141257 389.994763 166.182475 393.539758 165.24476 395.844005 C 158.097289 413.37609 151.434305 431.778784 145.250596 451.052087 C 145.000539 451.828858 144.964072 452.616055 145.125568 453.418892 C 146.433159 459.596567 149.241094 460.561014 153.544163 456.296594 C 153.960925 455.879536 154.278706 455.399919 154.492297 454.847317 C 160.915644 438.404796 167.714076 419.194052 174.892804 397.215084 C 175.497109 395.390454 175.507528 393.534545 174.924061 391.657783 " stroke="#fbb170" stroke-width="2" stroke-opacity="1" stroke-miterlimit="4"/><path stroke-linecap="butt" transform="matrix(0.749828, 0, 0, 0.749296, 51.805762, 81.309785)" fill="none" stroke-linejoin="miter" d="M 199.851648 403.611714 C 200.080867 402.970487 200.179848 402.308407 200.143381 401.625475 C 200.112124 400.942542 199.950629 400.290888 199.658895 399.675727 C 199.367162 399.055353 198.966028 398.518391 198.460704 398.059627 C 197.95538 397.600863 197.382332 397.25679 196.736351 397.027408 L 196.533179 396.954423 C 195.887198 396.72504 195.225588 396.625989 194.54314 396.657269 C 193.860692 396.693761 193.21471 396.855371 192.594777 397.147312 C 191.974843 397.439253 191.438262 397.835458 190.979823 398.341141 C 190.521385 398.846824 190.177556 399.420279 189.948337 400.066719 L 172.345346 449.227457 C 172.116126 449.873897 172.017145 450.535977 172.048403 451.21891 C 172.07966 451.89663 172.246365 452.548283 172.538098 453.163444 C 172.829832 453.783818 173.225756 454.320781 173.73108 454.779545 C 174.241613 455.238309 174.814661 455.582382 175.455433 455.811764 L 175.663814 455.884749 C 176.304586 456.119344 176.966196 456.213182 177.648644 456.181903 C 178.331092 456.150623 178.982283 455.989013 179.597007 455.697073 C 180.216941 455.405132 180.753522 455.003713 181.21196 454.49803 C 181.670399 453.992347 182.014228 453.418892 182.248656 452.772452 L 199.851648 403.611714 " stroke="#fbb170" stroke-width="2" stroke-opacity="1" stroke-miterlimit="4"/><path stroke-linecap="butt" transform="matrix(0.749828, 0, 0, 0.749296, 51.805762, 81.309785)" fill="none" stroke-linejoin="miter" d="M 650.512192 490.589206 C 658.89953 471.201212 667.130582 451.255403 675.116787 431.241821 C 676.215997 428.473597 676.596293 425.898263 676.268093 423.510605 C 675.893007 420.804939 672.965253 419.621537 670.693899 421.12816 C 668.599669 422.540944 667.109744 424.235243 666.229334 426.21627 C 662.75458 434.010045 656.341652 448.945943 646.980132 471.029175 C 644.234712 477.514431 642.114434 483.535709 640.6193 489.093009 C 639.837871 492.007204 640.713072 494.493913 643.58873 495.458361 C 646.89157 496.563565 649.407772 493.143687 650.512192 490.589206 " stroke="#fbb170" stroke-width="2" stroke-opacity="1" stroke-miterlimit="4"/><path stroke-linecap="butt" transform="matrix(0.749828, 0, 0, 0.749296, 51.805762, 81.309785)" fill="none" stroke-linejoin="miter" d="M 649.053524 428.802031 C 649.121248 428.379759 649.121248 427.952275 649.048315 427.530003 C 648.975381 427.112945 648.839934 426.711526 648.636762 426.336174 C 648.43359 425.960822 648.178324 425.627175 647.865752 425.335234 C 647.55318 425.048507 647.198933 424.819125 646.813428 424.647088 C 642.249882 422.624356 639.092909 426.826217 637.613403 430.48069 C 630.882694 446.964916 624.860481 462.568107 619.551973 477.285049 C 618.296477 480.783124 618.984135 483.499216 621.620155 485.438537 C 621.984822 485.709625 622.391165 485.855595 622.849604 485.876448 C 625.579396 485.95986 627.371473 484.932854 628.231045 482.79543 C 633.200934 470.554772 638.519861 457.328813 644.182616 443.117554 C 646.078884 438.337024 648.209581 433.858862 649.053524 428.802031 " stroke="#fbb170" stroke-width="2" stroke-opacity="1" stroke-miterlimit="4"/><path stroke-linecap="butt" transform="matrix(0.749828, 0, 0, 0.749296, 51.805762, 81.309785)" fill="none" stroke-linejoin="miter" d="M 674.335358 471.201212 C 671.876461 477.738599 670.381327 482.821497 669.839536 486.449903 C 669.495708 488.75415 670.303184 490.641338 672.251547 492.116682 C 672.470348 492.288718 672.715195 492.408622 672.980881 492.471181 C 676.210788 493.331364 678.403999 492.19488 679.565723 489.066943 L 699.012887 436.116189 C 699.20043 435.605293 699.268154 435.089183 699.216059 434.557434 C 698.64822 428.056539 695.710047 427.503937 690.411958 432.910054 C 690.047291 433.269767 689.755558 433.681612 689.536758 434.140376 C 685.473327 442.726562 680.404457 455.081912 674.335358 471.201212 " stroke="#fbb170" stroke-width="2" stroke-opacity="1" stroke-miterlimit="4"/><path stroke-linecap="butt" transform="matrix(0.749828, 0, 0, 0.749296, 51.805762, 81.309785)" fill="none" stroke-linejoin="miter" d="M 407.143933 445.400948 C 415.234328 456.666733 430.123156 464.512641 444.438936 462.098916 C 455.316428 460.2795 464.839443 451.781939 465.256205 440.484874 C 465.365605 438.029444 464.3237 434.619993 461.661632 433.890141 C 457.087667 432.64418 455.608162 437.70101 454.566256 440.969704 C 452.623103 447.131739 445.527727 450.926969 439.599285 451.067726 C 428.674907 451.317961 415.265585 443.894325 413.410994 432.565981 C 412.337831 426.075513 402.830444 424.647088 400.0173 430.934241 C 395.162021 441.730836 384.190757 447.564437 372.787103 445.838859 C 366.936804 444.95261 361.159439 440.828947 360.430105 434.651272 C 360.148791 432.253187 360.461362 428.082605 358.596352 426.325748 C 354.548549 422.483599 350.162127 426.794938 349.552613 431.043719 C 347.859517 442.83604 355.684226 452.172931 366.342918 456.01508 C 380.674327 461.165749 394.943221 456.48427 405.242455 445.296683 C 405.367484 445.161139 405.513351 445.056875 405.685265 444.989103 C 405.85718 444.916118 406.034304 444.890052 406.216637 444.900478 C 406.40418 444.910904 406.576094 444.957823 406.73759 445.046448 C 406.899085 445.135073 407.034533 445.254977 407.143933 445.400948 " stroke="#deaa8a" stroke-width="2" stroke-opacity="1" stroke-miterlimit="4"/><path fill="#bd6d4c" d="M 635.964844 670.277344 C 636.011719 670.859375 636.210938 670.917969 636.570312 670.449219 C 643.578125 661.339844 648.808594 652.238281 652.261719 643.144531 C 654.914062 636.148438 657.367188 628.300781 659.625 619.59375 C 665.738281 595.996094 680.195312 573.203125 705.628906 568.972656 C 728.589844 565.148438 748.039062 578.191406 754.5625 600.113281 C 757.640625 610.472656 758.648438 621.597656 757.582031 633.492188 C 754.683594 665.941406 744.949219 696.019531 728.378906 723.71875 C 725.378906 728.75 721.839844 734.085938 717.761719 739.726562 C 713.546875 745.574219 709.648438 750.441406 706.070312 754.335938 C 681.320312 781.292969 650.703125 796.964844 614.214844 801.359375 C 613.1875 801.484375 612.035156 802.046875 611.519531 802.980469 C 590.765625 841.023438 555.132812 866.296875 511.203125 868.828125 C 509.164062 868.957031 507.203125 869.914062 505.5 870.949219 C 493.503906 878.25 481.539062 883.746094 469.597656 887.4375 C 451.539062 893.015625 432.078125 894.429688 411.214844 891.667969 C 393.308594 889.300781 377.207031 882.902344 365.75 869.074219 C 362.414062 865.046875 359.917969 859.992188 358.269531 853.90625 C 358.164062 853.511719 357.957031 853.1875 357.648438 852.929688 C 357.335938 852.671875 356.980469 852.527344 356.578125 852.496094 C 347.238281 851.765625 337.96875 850.832031 328.773438 849.695312 C 327.664062 849.5625 326.644531 849.789062 325.71875 850.371094 C 302.105469 865.21875 275.808594 870.410156 246.835938 865.949219 C 221.109375 861.996094 192.523438 843.925781 190.554688 815.265625 C 190.40625 813.042969 190.164062 810.84375 189.828125 808.667969 C 189.773438 808.320312 189.628906 808.015625 189.386719 807.757812 C 185.519531 803.5625 182.183594 799.671875 179.375 796.089844 C 164.707031 777.332031 156.425781 756.140625 154.535156 732.511719 C 154.023438 726.066406 153.800781 718.277344 153.871094 709.136719 C 154.027344 689.90625 155.765625 670.925781 159.085938 652.191406 C 159.167969 651.738281 159.128906 651.296875 158.980469 650.859375 C 158.828125 650.425781 158.578125 650.050781 158.234375 649.746094 C 145.136719 638.101562 134.390625 624.839844 125.996094 609.964844 C 111.472656 584.210938 111.53125 551.132812 135.53125 531.535156 C 135.785156 531.324219 135.984375 531.070312 136.125 530.769531 C 136.265625 530.46875 136.335938 530.152344 136.335938 529.824219 C 136.335938 529.492188 136.261719 529.175781 136.121094 528.878906 C 135.976562 528.578125 135.777344 528.324219 135.519531 528.117188 C 125.167969 519.792969 115.765625 510.816406 107.050781 501.324219 C 90.933594 483.78125 79.894531 463.179688 73.925781 439.519531 C 73.734375 438.75 73.242188 438.433594 72.457031 438.566406 C 67.535156 439.441406 64.011719 438.371094 61.898438 435.347656 C 59.378906 431.746094 60.03125 425.855469 63.554688 423.28125 C 65.140625 422.113281 67.195312 421.449219 69.015625 420.703125 C 69.195312 420.628906 69.332031 420.511719 69.429688 420.347656 C 69.527344 420.183594 69.5625 420.003906 69.539062 419.816406 C 68.429688 411.320312 68.144531 402.988281 68.6875 394.820312 C 68.703125 394.617188 68.640625 394.445312 68.5 394.300781 C 68.359375 394.152344 68.191406 394.082031 67.988281 394.085938 C 65.765625 394.132812 63.488281 393.972656 61.164062 393.609375 C 53.789062 392.429688 50.988281 383.546875 56.179688 378.507812 C 59.15625 375.628906 65.527344 375.375 69.621094 375.082031 C 69.871094 375.0625 70.089844 374.972656 70.277344 374.804688 C 70.460938 374.636719 70.574219 374.429688 70.613281 374.183594 C 75.59375 344.082031 88.675781 316.097656 104.683594 289.316406 C 105.085938 288.632812 105.261719 287.90625 105.207031 287.136719 C 103.152344 259.421875 103.625 232.886719 106.617188 207.542969 C 110.3125 176.25 118.015625 145.757812 129.71875 116.066406 C 132.390625 109.269531 136.183594 101.597656 141.082031 96.269531 C 155.085938 81.078125 176.972656 80.984375 196.164062 87.140625 C 223.21875 95.796875 247.898438 107.3125 270.207031 121.683594 C 288.710938 133.609375 306.253906 147.300781 322.835938 162.757812 C 323.964844 163.816406 325.308594 164.273438 326.875 164.136719 C 344.769531 162.535156 362.433594 162.25 379.867188 163.285156 C 397.863281 164.339844 414.570312 165.824219 429.976562 167.738281 C 441.457031 169.160156 452.300781 170.515625 462.503906 171.808594 C 463.292969 171.90625 463.992188 171.714844 464.605469 171.222656 C 484.40625 155.34375 506.585938 141.644531 529.511719 129.671875 C 551.703125 118.09375 575.46875 108.882812 600.015625 103.484375 C 607.453125 101.851562 614.800781 101.066406 622.066406 101.128906 C 654.515625 101.398438 663.089844 129.367188 669.367188 155.683594 C 670.632812 160.976562 671.613281 166.070312 672.308594 170.96875 C 677.285156 206.03125 676.753906 240.738281 670.707031 275.09375 C 668.710938 286.488281 666.371094 297.328125 663.695312 307.609375 C 663.410156 308.722656 663.5 309.804688 663.976562 310.851562 C 667.289062 318.152344 670.417969 325.296875 672.9375 332.96875 C 677.953125 348.242188 681.882812 363.664062 684.722656 379.230469 C 686.183594 387.253906 687.109375 395.132812 687.496094 402.863281 C 687.515625 403.183594 687.625 403.46875 687.824219 403.71875 C 688.027344 403.96875 688.285156 404.132812 688.59375 404.21875 C 693.261719 405.476562 696.65625 407.144531 696.515625 412.75 C 696.429688 416.460938 694.960938 419.011719 692.105469 420.410156 C 690.742188 421.078125 689.1875 420.984375 687.789062 421.578125 C 687.378906 421.75 687.160156 422.054688 687.136719 422.5 C 686.707031 431.910156 685.648438 441.304688 683.960938 450.679688 C 683.914062 450.945312 683.953125 451.199219 684.082031 451.445312 C 684.210938 451.6875 684.398438 451.867188 684.652344 451.984375 C 689.398438 454.152344 693.378906 455.984375 693.25 462.128906 C 693.109375 469.332031 687.242188 472.480469 680.425781 470.546875 C 679.292969 470.21875 678.546875 470.625 678.199219 471.757812 C 672.1875 491.46875 661.78125 508.359375 646.988281 522.429688 C 632.359375 536.339844 616.574219 548.152344 599.644531 557.859375 C 599.464844 557.960938 599.351562 558.113281 599.300781 558.308594 C 599.25 558.507812 599.277344 558.691406 599.386719 558.863281 C 616.886719 586.539062 627.890625 618.964844 633.96875 651.832031 C 635.101562 657.953125 635.519531 664.144531 635.964844 670.277344 Z M 165.117188 525.808594 L 171.511719 537.527344 C 157.222656 536.421875 146.816406 541.28125 140.289062 552.101562 C 131.667969 566.382812 132.519531 583.101562 139.988281 597.6875 C 148.394531 614.109375 159.804688 628.167969 174.21875 639.859375 C 175.371094 640.789062 176.226562 642.035156 176.785156 643.589844 C 177.609375 645.851562 177.824219 648.226562 177.425781 650.710938 C 174.042969 671.898438 172.128906 693.332031 171.6875 715.011719 C 171.300781 734.503906 174.777344 754.035156 184.21875 770.8125 C 190.820312 782.5625 198.800781 792.808594 208.160156 801.542969 C 208.53125 801.894531 208.796875 802.308594 208.960938 802.789062 C 209.125 803.269531 209.164062 803.761719 209.082031 804.261719 C 208.296875 808.957031 208.421875 813.75 209.464844 818.648438 C 211.601562 828.699219 220.503906 836.324219 229.613281 841.023438 C 245.984375 849.464844 264.359375 850.300781 282.5625 848.109375 C 286.519531 847.628906 291.398438 846.285156 297.191406 844.078125 C 306.96875 840.34375 314.355469 836.019531 323.128906 831.378906 L 366.214844 835.820312 C 368.417969 839.460938 370.777344 842.910156 373.296875 846.175781 C 374.9375 848.289062 376.214844 850.304688 377.125 852.226562 C 381.734375 861.867188 391.90625 868.339844 402.09375 871.042969 C 425.527344 877.269531 448.90625 875.984375 472.222656 867.183594 C 478.792969 864.714844 485.269531 862.417969 491.675781 859.375 C 495.265625 857.671875 498.277344 854.734375 501.660156 852.644531 C 502.992188 851.820312 504.433594 851.332031 505.988281 851.175781 C 513.609375 850.40625 521.109375 849.765625 528.460938 848.121094 C 558.632812 841.359375 582.679688 819.59375 596.585938 792.089844 C 597.121094 791.03125 597.703125 789.992188 598.324219 788.964844 C 599 787.84375 599.597656 786.785156 600.109375 785.78125 L 611.25 782.855469 C 625.265625 782.027344 637.773438 778.773438 650.570312 772.699219 C 657.136719 769.582031 661.710938 767.214844 664.292969 765.601562 C 669.386719 762.429688 675.480469 758.03125 682.574219 752.414062 C 690.90625 745.816406 695.558594 739.226562 701.546875 731.160156 C 711.859375 717.238281 720.097656 702.664062 726.546875 686.167969 C 729.308594 679.132812 732.191406 669.625 735.195312 657.648438 C 740.246094 637.5625 746.976562 591.625 717.097656 586.691406 C 700.039062 583.871094 685.851562 600.054688 680.601562 614.078125 C 678.261719 620.328125 675.394531 629.367188 672.003906 641.199219 C 670.695312 645.757812 667.851562 649.824219 666.148438 654.382812 C 662.492188 664.179688 657.199219 673.140625 650.265625 681.269531 C 646.683594 685.46875 642.21875 689.128906 638.179688 692.941406 C 637.246094 693.820312 634.808594 695.210938 630.863281 697.113281 C 626.640625 693.445312 622.851562 689.1875 619.5 684.335938 C 618.839844 680.355469 618.332031 676.289062 617.972656 672.128906 C 615.664062 644.761719 608.875 618.722656 597.613281 594.015625 C 593.574219 585.167969 588.558594 575.660156 582.5625 565.484375 C 579.972656 561.09375 578.085938 556.988281 576.902344 553.171875 C 576.0625 550.46875 576.996094 548.488281 579.703125 547.238281 C 597.765625 538.855469 614.660156 528.503906 629.359375 515.070312 C 640.339844 505.03125 648.296875 492.59375 655.609375 479.59375 C 658.417969 474.609375 660.460938 469.5625 661.734375 464.449219 C 661.960938 463.539062 661.617188 462.984375 660.699219 462.78125 C 651.085938 460.667969 641.480469 458.429688 631.890625 456.066406 C 620.585938 453.277344 623.433594 439.566406 635.167969 441.328125 C 645.132812 442.820312 654.875 444.777344 664.394531 447.203125 C 664.664062 447.273438 664.933594 447.289062 665.207031 447.246094 C 665.484375 447.207031 665.738281 447.113281 665.972656 446.96875 C 666.210938 446.824219 666.410156 446.636719 666.570312 446.410156 C 666.734375 446.183594 666.84375 445.9375 666.90625 445.664062 C 668.601562 438.054688 669.625 430.386719 669.972656 422.660156 C 669.984375 422.429688 669.945312 422.203125 669.859375 421.984375 C 669.773438 421.769531 669.648438 421.578125 669.484375 421.410156 C 669.316406 421.246094 669.125 421.121094 668.90625 421.035156 C 668.683594 420.953125 668.457031 420.914062 668.222656 420.925781 C 651.996094 421.734375 636.308594 423.171875 621.15625 425.238281 C 616.117188 425.925781 610.027344 424.15625 609.6875 418.253906 C 609.445312 414.070312 612.535156 411.550781 616.257812 410.839844 C 633.414062 407.558594 650.726562 405.65625 668.1875 405.125 C 668.617188 405.113281 668.996094 404.964844 669.320312 404.679688 C 669.644531 404.394531 669.84375 404.039062 669.914062 403.609375 C 670.265625 401.449219 670.269531 399.261719 669.925781 397.046875 C 667.890625 383.871094 665.003906 371.644531 661.269531 360.367188 C 656.183594 344.992188 651.054688 330.796875 645.878906 317.777344 C 644.621094 314.605469 644.515625 311.386719 645.402344 308.078125 C 648.472656 296.441406 651.113281 284.433594 653.324219 272.050781 C 658.933594 240.546875 659.59375 208.898438 655.308594 177.101562 C 653.292969 162.144531 649.734375 148.097656 644.632812 134.953125 C 639.5 121.765625 631.167969 115.46875 616.433594 117.871094 C 590.972656 122.011719 566.320312 130.699219 542.460938 142.8125 C 534.597656 146.796875 526.90625 150.949219 519.382812 155.261719 C 501.175781 165.679688 484.769531 177.199219 470.171875 189.820312 C 468.78125 191.019531 466.800781 190.800781 465.121094 190.53125 C 433.609375 185.472656 402.691406 182.210938 372.363281 180.75 C 359.109375 180.121094 342.886719 180.519531 323.6875 181.949219 C 320.046875 182.21875 317.726562 181.742188 315.078125 179.46875 C 303.410156 169.476562 292.488281 158.921875 279.960938 149.945312 C 264.582031 138.917969 249.308594 128.796875 232.273438 120.589844 C 221.097656 115.195312 209.84375 110.453125 198.511719 106.363281 C 185.164062 101.550781 167.824219 97.210938 156.566406 107.449219 C 153.332031 110.394531 150.257812 115.328125 147.347656 122.246094 C 145.140625 127.515625 143.027344 132.992188 141.015625 138.683594 C 125.101562 183.585938 119.085938 228.992188 122.976562 274.894531 C 123.210938 277.6875 123.570312 280.496094 124.0625 283.324219 C 124.714844 287.085938 124.222656 290.375 122.589844 293.1875 C 118.15625 300.804688 114.007812 308.230469 110.140625 315.457031 C 101.160156 332.230469 94.359375 349.683594 89.746094 367.816406 C 89.109375 370.304688 88.660156 372.816406 88.394531 375.351562 C 88.339844 375.808594 88.542969 376.058594 89 376.097656 C 96.210938 376.789062 104.070312 377.753906 112.582031 379 C 116.96875 379.640625 123.734375 380.945312 124.585938 386.019531 C 126.019531 394.457031 119.6875 396.265625 113.046875 395.460938 C 103.832031 394.34375 95.167969 393.628906 87.0625 393.316406 C 86.828125 393.304688 86.625 393.382812 86.457031 393.546875 C 86.285156 393.710938 86.199219 393.910156 86.199219 394.144531 C 86.175781 401.070312 86.5 408.464844 87.167969 416.332031 C 87.183594 416.492188 87.253906 416.621094 87.386719 416.714844 C 87.519531 416.8125 87.664062 416.835938 87.824219 416.796875 C 94.707031 415.039062 101.660156 413.589844 108.683594 412.449219 C 111 412.074219 112.972656 412.40625 114.597656 413.441406 C 118.179688 415.714844 119.089844 421.824219 115.324219 424.644531 C 113.859375 425.738281 112.328125 426.523438 110.726562 427 C 104.597656 428.816406 98.265625 430.574219 91.730469 432.269531 C 91.570312 432.308594 91.425781 432.378906 91.289062 432.480469 C 91.15625 432.578125 91.046875 432.699219 90.960938 432.839844 C 90.875 432.980469 90.820312 433.132812 90.792969 433.296875 C 90.765625 433.460938 90.773438 433.625 90.808594 433.785156 C 100.421875 475.535156 130.351562 503.703125 165.117188 525.808594 Z M 165.117188 525.808594 " fill-opacity="1" fill-rule="nonzero"/><path fill="#ffcb8d" d="M 619.5 684.335938 C 619.535156 694.082031 619.757812 704.296875 618.929688 713.519531 C 617.667969 727.511719 615.199219 741.300781 611.519531 754.898438 C 608.679688 765.382812 604.878906 775.675781 600.109375 785.78125 C 599.597656 786.785156 599 787.84375 598.324219 788.964844 C 597.703125 789.992188 597.121094 791.03125 596.585938 792.089844 C 582.679688 819.59375 558.632812 841.359375 528.460938 848.121094 C 521.109375 849.765625 513.609375 850.40625 505.988281 851.175781 C 504.433594 851.332031 502.992188 851.820312 501.660156 852.644531 C 498.277344 854.734375 495.265625 857.671875 491.675781 859.375 C 485.269531 862.417969 478.792969 864.714844 472.222656 867.183594 C 448.90625 875.984375 425.527344 877.269531 402.09375 871.042969 C 391.90625 868.339844 381.734375 861.867188 377.125 852.226562 C 376.214844 850.304688 374.9375 848.289062 373.296875 846.175781 C 370.777344 842.910156 368.417969 839.460938 366.214844 835.820312 C 371.511719 835.050781 376.800781 835.160156 382.082031 836.148438 C 384.191406 836.542969 386.15625 837.285156 387.976562 838.375 C 390.425781 839.859375 393.082031 840.777344 395.945312 841.125 C 403.527344 842.042969 411.65625 842.265625 420.328125 841.792969 C 446.136719 840.355469 465.421875 823.511719 481.464844 803.234375 C 494.21875 787.132812 500.902344 765.390625 502.453125 745.242188 C 503.699219 729.113281 502.617188 713.535156 499.210938 698.503906 C 496.398438 686.132812 489.632812 669.15625 479.273438 661.777344 C 474.355469 658.277344 469.558594 654.59375 464.875 650.722656 C 466.523438 649.796875 467.644531 648.667969 468.234375 647.332031 C 468.390625 646.964844 468.398438 646.597656 468.257812 646.222656 C 467.660156 644.660156 466.695312 643.339844 465.363281 642.257812 C 447.246094 627.570312 435.671875 602.734375 444.65625 580.082031 C 450.046875 566.511719 460.234375 558.523438 475.222656 556.121094 C 489.316406 553.859375 504.660156 561.03125 514.578125 570.847656 C 517.710938 573.949219 520.773438 577.300781 523.757812 580.898438 C 524.519531 581.808594 525.445312 582.324219 526.535156 582.449219 C 526.882812 582.488281 527.222656 582.453125 527.554688 582.34375 C 527.886719 582.234375 528.179688 582.058594 528.4375 581.820312 C 528.691406 581.582031 528.882812 581.300781 529.015625 580.976562 C 529.144531 580.652344 529.203125 580.3125 529.183594 579.964844 C 528.8125 572.703125 518.953125 564.097656 513.445312 559.910156 C 520.011719 555.519531 525.003906 549.882812 528.425781 542.996094 C 537.152344 525.484375 539.683594 505.652344 534.890625 486.667969 C 532.242188 476.210938 529.335938 465.742188 523.617188 456.671875 C 520.546875 451.796875 517.199219 447.203125 513.574219 442.890625 C 511.300781 440.183594 508.601562 437.953125 505.476562 436.199219 C 500.769531 433.539062 495.847656 431.035156 490.707031 428.691406 C 500.878906 426.164062 508.527344 421.058594 513.644531 413.371094 C 523.769531 398.144531 520.515625 378.707031 507.554688 366.242188 C 498.21875 357.253906 485.175781 353.652344 473.296875 359.421875 C 467.660156 362.160156 462.363281 366.839844 457.40625 373.460938 C 456.941406 364.808594 455.066406 357.09375 451.785156 350.316406 C 449.054688 344.675781 445.546875 339.441406 441.257812 334.613281 C 432.199219 324.398438 420.921875 315.394531 407.4375 307.597656 C 389.714844 297.363281 371.394531 293.503906 351.082031 295.195312 C 342.878906 295.886719 335.3125 297.117188 328.390625 298.890625 C 318.378906 301.453125 309.300781 306.585938 300.34375 312.203125 C 292.167969 317.34375 285.003906 322.992188 278.851562 329.15625 C 272.855469 335.164062 269.363281 342.523438 268.375 351.226562 C 266.320312 349.507812 264.234375 347.863281 262.121094 346.285156 C 256.605469 342.171875 250.480469 340.28125 243.746094 340.605469 C 237.546875 340.917969 231.941406 342.902344 226.933594 346.5625 C 211.34375 357.988281 205.429688 376.703125 213.585938 394.355469 C 217.421875 402.65625 224.191406 407.390625 232.273438 411.597656 C 221.78125 416.992188 213.371094 423.3125 207.039062 430.554688 C 192.96875 446.660156 185.027344 466.117188 183.214844 488.933594 C 181.78125 507.027344 186.496094 523.007812 197.355469 536.875 C 197.613281 537.199219 197.683594 537.5625 197.566406 537.957031 L 197.15625 539.320312 L 165.117188 525.808594 C 130.351562 503.703125 100.421875 475.535156 90.808594 433.785156 C 90.773438 433.625 90.765625 433.460938 90.792969 433.296875 C 90.820312 433.132812 90.875 432.980469 90.960938 432.839844 C 91.046875 432.699219 91.15625 432.578125 91.289062 432.480469 C 91.425781 432.378906 91.570312 432.308594 91.730469 432.269531 C 98.265625 430.574219 104.597656 428.816406 110.726562 427 C 112.328125 426.523438 113.859375 425.738281 115.324219 424.644531 C 119.089844 421.824219 118.179688 415.714844 114.597656 413.441406 C 112.972656 412.40625 111 412.074219 108.683594 412.449219 C 101.660156 413.589844 94.707031 415.039062 87.824219 416.796875 C 87.664062 416.835938 87.519531 416.8125 87.386719 416.714844 C 87.253906 416.621094 87.183594 416.492188 87.167969 416.332031 C 86.5 408.464844 86.175781 401.070312 86.199219 394.144531 C 86.199219 393.910156 86.285156 393.710938 86.457031 393.546875 C 86.625 393.382812 86.828125 393.304688 87.0625 393.316406 C 95.167969 393.628906 103.832031 394.34375 113.046875 395.460938 C 119.6875 396.265625 126.019531 394.457031 124.585938 386.019531 C 123.734375 380.945312 116.96875 379.640625 112.582031 379 C 104.070312 377.753906 96.210938 376.789062 89 376.097656 C 88.542969 376.058594 88.339844 375.808594 88.394531 375.351562 C 88.660156 372.816406 89.109375 370.304688 89.746094 367.816406 C 94.359375 349.683594 101.160156 332.230469 110.140625 315.457031 C 114.007812 308.230469 118.15625 300.804688 122.589844 293.1875 C 124.222656 290.375 124.714844 287.085938 124.0625 283.324219 C 123.570312 280.496094 123.210938 277.6875 122.976562 274.894531 C 119.085938 228.992188 125.101562 183.585938 141.015625 138.683594 C 143.027344 132.992188 145.140625 127.515625 147.347656 122.246094 C 150.257812 115.328125 153.332031 110.394531 156.566406 107.449219 C 167.824219 97.210938 185.164062 101.550781 198.511719 106.363281 C 209.84375 110.453125 221.097656 115.195312 232.273438 120.589844 C 249.308594 128.796875 264.582031 138.917969 279.960938 149.945312 C 292.488281 158.921875 303.410156 169.476562 315.078125 179.46875 C 317.726562 181.742188 320.046875 182.21875 323.6875 181.949219 C 342.886719 180.519531 359.109375 180.121094 372.363281 180.75 C 402.691406 182.210938 433.609375 185.472656 465.121094 190.53125 C 466.800781 190.800781 468.78125 191.019531 470.171875 189.820312 C 484.769531 177.199219 501.175781 165.679688 519.382812 155.261719 C 526.90625 150.949219 534.597656 146.796875 542.460938 142.8125 C 566.320312 130.699219 590.972656 122.011719 616.433594 117.871094 C 631.167969 115.46875 639.5 121.765625 644.632812 134.953125 C 649.734375 148.097656 653.292969 162.144531 655.308594 177.101562 C 659.59375 208.898438 658.933594 240.546875 653.324219 272.050781 C 651.113281 284.433594 648.472656 296.441406 645.402344 308.078125 C 644.515625 311.386719 644.621094 314.605469 645.878906 317.777344 C 651.054688 330.796875 656.183594 344.992188 661.269531 360.367188 C 665.003906 371.644531 667.890625 383.871094 669.925781 397.046875 C 670.269531 399.261719 670.265625 401.449219 669.914062 403.609375 C 669.84375 404.039062 669.644531 404.394531 669.320312 404.679688 C 668.996094 404.964844 668.617188 405.113281 668.1875 405.125 C 650.726562 405.65625 633.414062 407.558594 616.257812 410.839844 C 612.535156 411.550781 609.445312 414.070312 609.6875 418.253906 C 610.027344 424.15625 616.117188 425.925781 621.15625 425.238281 C 636.308594 423.171875 651.996094 421.734375 668.222656 420.925781 C 668.457031 420.914062 668.683594 420.953125 668.90625 421.035156 C 669.125 421.121094 669.316406 421.246094 669.484375 421.410156 C 669.648438 421.578125 669.773438 421.769531 669.859375 421.984375 C 669.945312 422.203125 669.984375 422.429688 669.972656 422.660156 C 669.625 430.386719 668.601562 438.054688 666.90625 445.664062 C 666.84375 445.9375 666.734375 446.183594 666.570312 446.410156 C 666.410156 446.636719 666.210938 446.824219 665.972656 446.96875 C 665.738281 447.113281 665.484375 447.207031 665.207031 447.246094 C 664.933594 447.289062 664.664062 447.273438 664.394531 447.203125 C 654.875 444.777344 645.132812 442.820312 635.167969 441.328125 C 623.433594 439.566406 620.585938 453.277344 631.890625 456.066406 C 641.480469 458.429688 651.085938 460.667969 660.699219 462.78125 C 661.617188 462.984375 661.960938 463.539062 661.734375 464.449219 C 660.460938 469.5625 658.417969 474.609375 655.609375 479.59375 C 648.296875 492.59375 640.339844 505.03125 629.359375 515.070312 C 614.660156 528.503906 597.765625 538.855469 579.703125 547.238281 C 576.996094 548.488281 576.0625 550.46875 576.902344 553.171875 C 578.085938 556.988281 579.972656 561.09375 582.5625 565.484375 C 588.558594 575.660156 593.574219 585.167969 597.613281 594.015625 C 608.875 618.722656 615.664062 644.761719 617.972656 672.128906 C 618.332031 676.289062 618.839844 680.355469 619.5 684.335938 Z M 179.878906 237.320312 L 183.039062 237.75 C 183.257812 237.78125 183.332031 237.695312 183.261719 237.492188 C 183.222656 237.363281 183.207031 237.230469 183.214844 237.097656 C 183.253906 236.65625 183.464844 236.324219 183.84375 236.105469 C 185.214844 235.320312 186.664062 234.703125 188.195312 234.253906 C 189.613281 233.832031 190.988281 233.199219 192.328125 232.351562 C 193.703125 231.488281 195.058594 230.605469 196.398438 229.707031 C 197.011719 229.300781 197.625 228.875 198.230469 228.421875 C 202.203125 225.476562 206.730469 222.914062 211.8125 220.726562 C 212.960938 220.230469 214.230469 219.882812 215.613281 219.679688 C 216.804688 219.507812 217.957031 219.082031 219.066406 218.394531 C 222.429688 216.34375 225.875 214.445312 229.40625 212.695312 C 232.398438 211.21875 235.285156 209.707031 238.0625 208.160156 C 240.957031 206.558594 243.875 205.113281 246.824219 203.824219 C 247.207031 203.652344 247.519531 203.390625 247.769531 203.042969 C 248.320312 202.25 249.007812 201.605469 249.824219 201.117188 C 250.210938 200.882812 250.390625 200.542969 250.359375 200.089844 C 250.296875 199.214844 250.140625 198.386719 249.894531 197.609375 C 249.894531 197.601562 249.699219 197.234375 249.308594 196.511719 C 249.089844 196.125 249.015625 195.675781 249.074219 195.171875 C 249.105469 194.882812 249.023438 194.636719 248.820312 194.425781 C 248.445312 194.042969 248.394531 193.453125 248.667969 192.652344 C 249.929688 192.816406 251.070312 192.199219 251.023438 190.835938 C 250.828125 185.285156 247.886719 180.351562 244.328125 175.886719 C 230.605469 158.609375 213.933594 144.511719 194.066406 136.199219 C 184.195312 132.074219 170.332031 130.101562 162.925781 140.023438 C 160.34375 143.492188 158.0625 147.144531 156.089844 150.984375 C 143.054688 176.285156 137.628906 204.847656 137.6875 233.566406 C 137.703125 240.140625 138.214844 246.738281 139.21875 253.363281 C 140.394531 261.054688 142.914062 269.382812 152.425781 262.058594 C 160.046875 256.175781 167.644531 250.054688 175.222656 243.695312 C 177.8125 241.511719 179.363281 239.386719 179.878906 237.320312 Z M 541.050781 197.910156 C 540.621094 199.0625 540.015625 200.210938 539.230469 201.363281 C 538.351562 202.636719 537.785156 203.8125 537.539062 204.882812 C 536.449219 209.53125 537.671875 213.578125 541.203125 217.019531 C 542.609375 218.394531 544.0625 219.691406 545.566406 220.902344 C 545.859375 221.144531 546.195312 221.273438 546.570312 221.289062 C 547.617188 221.328125 548.460938 221.785156 549.101562 222.664062 C 549.347656 223.011719 549.6875 223.234375 550.117188 223.328125 C 550.832031 223.5 551.367188 223.976562 551.726562 224.761719 C 551.882812 225.097656 552.132812 225.3125 552.484375 225.414062 C 553.511719 225.710938 554.425781 226.285156 555.226562 227.140625 C 555.414062 227.34375 555.644531 227.46875 555.925781 227.511719 C 556.882812 227.660156 557.714844 228.089844 558.421875 228.796875 C 558.921875 229.292969 559.457031 229.75 560.03125 230.160156 C 561.6875 231.347656 563.214844 232.773438 564.605469 234.425781 C 564.855469 234.730469 565.167969 234.941406 565.539062 235.058594 C 566.007812 235.210938 566.386719 235.480469 566.683594 235.863281 C 567.726562 237.222656 568.992188 238.128906 570.488281 238.578125 C 570.710938 238.640625 570.890625 238.765625 571.023438 238.949219 C 572.074219 240.398438 573.367188 241.523438 574.910156 242.332031 C 578.8125 244.382812 583.101562 247.464844 587.777344 251.578125 C 587.878906 251.664062 587.933594 251.640625 587.941406 251.507812 C 587.949219 251.390625 587.921875 251.28125 587.859375 251.179688 C 587.625 250.761719 587.695312 250.703125 588.070312 251.007812 C 591.34375 253.703125 594.972656 255.449219 598.953125 256.242188 C 597.59375 259.015625 597.832031 261.601562 599.667969 263.996094 C 601.703125 266.652344 604.132812 269.390625 606.945312 272.203125 C 612.023438 277.273438 616.828125 282.554688 621.414062 288.011719 C 626.035156 293.503906 630.597656 288.886719 632.453125 284.175781 C 642.789062 257.980469 643.910156 227.640625 641.65625 198.925781 C 641.042969 191.066406 639.882812 183.296875 638.179688 175.621094 C 635.390625 163.003906 628.984375 148.046875 613.785156 147.429688 C 603.714844 147.019531 592.769531 150.832031 583.648438 155.519531 C 570.378906 162.34375 558.796875 170.710938 548.902344 180.621094 C 545.566406 183.972656 542.992188 187.203125 541.179688 190.320312 C 539.628906 192.980469 539.585938 195.507812 541.050781 197.910156 Z M 163.320312 371.292969 C 163.074219 371.144531 162.800781 371.09375 162.503906 371.140625 C 160.453125 371.476562 158.996094 372.644531 158.140625 374.648438 C 152.449219 387.941406 147.242188 400.992188 142.519531 413.800781 C 141.945312 415.375 141.65625 417.34375 143.171875 418.535156 C 147.546875 421.925781 149.871094 417.242188 151.152344 413.976562 C 156.472656 400.515625 161.125 387.910156 165.105469 376.164062 C 165.257812 375.722656 165.328125 375.265625 165.324219 374.796875 C 165.316406 374.324219 165.234375 373.871094 165.070312 373.425781 C 164.910156 372.984375 164.675781 372.578125 164.378906 372.214844 C 164.078125 371.847656 163.726562 371.539062 163.320312 371.292969 Z M 182.96875 374.777344 C 182.871094 374.457031 182.714844 374.164062 182.503906 373.90625 C 182.292969 373.644531 182.039062 373.429688 181.746094 373.265625 C 181.449219 373.101562 181.136719 373 180.800781 372.957031 C 180.464844 372.914062 180.132812 372.933594 179.808594 373.019531 C 177.882812 373.53125 176.414062 376.1875 175.710938 377.914062 C 170.351562 391.050781 165.355469 404.839844 160.71875 419.28125 C 160.53125 419.863281 160.503906 420.453125 160.625 421.054688 C 161.605469 425.683594 163.710938 426.40625 166.9375 423.210938 C 167.25 422.898438 167.488281 422.539062 167.648438 422.125 C 172.464844 409.804688 177.5625 395.410156 182.945312 378.941406 C 183.398438 377.574219 183.40625 376.183594 182.96875 374.777344 Z M 201.660156 383.734375 C 201.832031 383.253906 201.90625 382.757812 201.878906 382.246094 C 201.855469 381.734375 201.734375 381.246094 201.515625 380.785156 C 201.296875 380.320312 200.996094 379.917969 200.617188 379.574219 C 200.238281 379.230469 199.808594 378.972656 199.324219 378.800781 L 199.171875 378.746094 C 198.6875 378.574219 198.191406 378.5 197.679688 378.523438 C 197.167969 378.550781 196.683594 378.671875 196.21875 378.890625 C 195.753906 379.109375 195.351562 379.40625 195.007812 379.785156 C 194.664062 380.164062 194.40625 380.59375 194.234375 381.078125 L 181.035156 417.914062 C 180.863281 418.398438 180.789062 418.894531 180.8125 419.40625 C 180.835938 419.914062 180.960938 420.402344 181.179688 420.863281 C 181.398438 421.328125 181.695312 421.730469 182.074219 422.074219 C 182.457031 422.417969 182.886719 422.675781 183.367188 422.847656 L 183.523438 422.902344 C 184.003906 423.078125 184.5 423.148438 185.011719 423.125 C 185.523438 423.101562 186.011719 422.980469 186.472656 422.761719 C 186.9375 422.542969 187.339844 422.242188 187.683594 421.863281 C 188.027344 421.484375 188.285156 421.054688 188.460938 420.570312 Z M 539.578125 448.90625 C 545.867188 434.378906 552.039062 419.433594 558.027344 404.4375 C 558.851562 402.363281 559.136719 400.433594 558.890625 398.644531 C 558.609375 396.617188 556.414062 395.730469 554.710938 396.859375 C 553.140625 397.917969 552.023438 399.1875 551.363281 400.671875 C 548.757812 406.511719 543.945312 417.703125 536.929688 434.25 C 534.871094 439.109375 533.28125 443.621094 532.160156 447.785156 C 531.574219 449.96875 532.230469 451.832031 534.386719 452.554688 C 536.863281 453.382812 538.75 450.820312 539.578125 448.90625 Z M 538.484375 402.609375 C 538.535156 402.292969 538.535156 401.972656 538.480469 401.65625 C 538.425781 401.34375 538.324219 401.042969 538.171875 400.761719 C 538.019531 400.480469 537.828125 400.230469 537.59375 400.011719 C 537.359375 399.796875 537.09375 399.625 536.804688 399.496094 C 533.382812 397.980469 531.015625 401.128906 529.90625 403.867188 C 524.859375 416.21875 520.34375 427.910156 516.363281 438.9375 C 515.421875 441.558594 515.9375 443.59375 517.914062 445.046875 C 518.1875 445.25 518.492188 445.359375 518.835938 445.375 C 520.882812 445.4375 522.226562 444.667969 522.871094 443.066406 C 526.597656 433.894531 530.585938 423.984375 534.832031 413.335938 C 536.253906 409.753906 537.851562 406.398438 538.484375 402.609375 Z M 557.441406 434.378906 C 555.597656 439.277344 554.476562 443.085938 554.070312 445.804688 C 553.8125 447.53125 554.417969 448.945312 555.878906 450.050781 C 556.042969 450.179688 556.226562 450.269531 556.425781 450.316406 C 558.847656 450.960938 560.492188 450.109375 561.363281 447.765625 L 575.945312 408.089844 C 576.085938 407.707031 576.136719 407.320312 576.097656 406.921875 C 575.671875 402.050781 573.46875 401.636719 569.496094 405.6875 C 569.222656 405.957031 569.003906 406.265625 568.839844 406.609375 C 565.792969 413.042969 561.992188 422.300781 557.441406 434.378906 Z M 557.441406 434.378906 " fill-opacity="1" fill-rule="nonzero"/><path fill="#f79753" d="M 248.667969 192.652344 C 247.40625 191.71875 246.324219 190.578125 245.414062 189.226562 C 232.449219 169.917969 214.773438 152.664062 193.433594 142.9375 C 184.917969 139.058594 173.144531 136.410156 166.738281 145.234375 C 163.800781 149.269531 161.253906 153.625 159.097656 158.304688 C 147.554688 183.332031 142.261719 210.464844 143.21875 239.699219 C 143.40625 245.324219 144.265625 251.039062 145.796875 256.835938 C 145.828125 256.960938 145.878906 257.078125 145.941406 257.191406 C 146.003906 257.300781 146.078125 257.402344 146.167969 257.496094 C 146.257812 257.589844 146.355469 257.667969 146.464844 257.734375 C 146.574219 257.800781 146.691406 257.855469 146.8125 257.890625 C 146.9375 257.929688 147.0625 257.949219 147.191406 257.957031 C 147.320312 257.960938 147.445312 257.949219 147.570312 257.921875 C 147.695312 257.894531 147.816406 257.855469 147.929688 257.796875 C 148.046875 257.738281 148.152344 257.667969 148.246094 257.582031 C 156.148438 250.664062 164 244.605469 171.792969 239.40625 C 173.71875 238.136719 177.707031 235.5 179.878906 237.320312 C 179.363281 239.386719 177.8125 241.511719 175.222656 243.695312 C 167.644531 250.054688 160.046875 256.175781 152.425781 262.058594 C 142.914062 269.382812 140.394531 261.054688 139.21875 253.363281 C 138.214844 246.738281 137.703125 240.140625 137.6875 233.566406 C 137.628906 204.847656 143.054688 176.285156 156.089844 150.984375 C 158.0625 147.144531 160.34375 143.492188 162.925781 140.023438 C 170.332031 130.101562 184.195312 132.074219 194.066406 136.199219 C 213.933594 144.511719 230.605469 158.609375 244.328125 175.886719 C 247.886719 180.351562 250.828125 185.285156 251.023438 190.835938 C 251.070312 192.199219 249.929688 192.816406 248.667969 192.652344 Z M 248.667969 192.652344 " fill-opacity="1" fill-rule="nonzero"/><path fill="#ffcfba" d="M 248.667969 192.652344 C 248.394531 193.453125 248.445312 194.042969 248.820312 194.425781 C 249.023438 194.636719 249.105469 194.882812 249.074219 195.171875 C 249.015625 195.675781 249.089844 196.125 249.308594 196.511719 C 249.699219 197.234375 249.894531 197.601562 249.894531 197.609375 C 250.140625 198.386719 250.296875 199.214844 250.359375 200.089844 C 250.390625 200.542969 250.210938 200.882812 249.824219 201.117188 C 249.007812 201.605469 248.320312 202.25 247.769531 203.042969 C 247.519531 203.390625 247.207031 203.652344 246.824219 203.824219 C 243.875 205.113281 240.957031 206.558594 238.0625 208.160156 C 235.285156 209.707031 232.398438 211.21875 229.40625 212.695312 C 225.875 214.445312 222.429688 216.34375 219.066406 218.394531 C 217.957031 219.082031 216.804688 219.507812 215.613281 219.679688 C 214.230469 219.882812 212.960938 220.230469 211.8125 220.726562 C 206.730469 222.914062 202.203125 225.476562 198.230469 228.421875 C 197.625 228.875 197.011719 229.300781 196.398438 229.707031 C 195.058594 230.605469 193.703125 231.488281 192.328125 232.351562 C 190.988281 233.199219 189.613281 233.832031 188.195312 234.253906 C 186.664062 234.703125 185.214844 235.320312 183.84375 236.105469 C 183.464844 236.324219 183.253906 236.65625 183.214844 237.097656 C 183.207031 237.230469 183.222656 237.363281 183.261719 237.492188 C 183.332031 237.695312 183.257812 237.78125 183.039062 237.75 L 179.878906 237.320312 C 177.707031 235.5 173.71875 238.136719 171.792969 239.40625 C 164 244.605469 156.148438 250.664062 148.246094 257.582031 C 148.152344 257.667969 148.046875 257.738281 147.929688 257.796875 C 147.816406 257.855469 147.695312 257.894531 147.570312 257.921875 C 147.445312 257.949219 147.320312 257.960938 147.191406 257.957031 C 147.0625 257.949219 146.9375 257.929688 146.8125 257.890625 C 146.691406 257.855469 146.574219 257.800781 146.464844 257.734375 C 146.355469 257.667969 146.257812 257.589844 146.167969 257.496094 C 146.078125 257.402344 146.003906 257.300781 145.941406 257.191406 C 145.878906 257.078125 145.828125 256.960938 145.796875 256.835938 C 144.265625 251.039062 143.40625 245.324219 143.21875 239.699219 C 142.261719 210.464844 147.554688 183.332031 159.097656 158.304688 C 161.253906 153.625 163.800781 149.269531 166.738281 145.234375 C 173.144531 136.410156 184.917969 139.058594 193.433594 142.9375 C 214.773438 152.664062 232.449219 169.917969 245.414062 189.226562 C 246.324219 190.578125 247.40625 191.71875 248.667969 192.652344 Z M 248.667969 192.652344 " fill-opacity="1" fill-rule="nonzero"/><path fill="#f79753" d="M 598.953125 256.242188 C 601.28125 256.957031 603.429688 258.304688 605.40625 260.285156 C 612.421875 267.328125 618.769531 274.226562 624.449219 280.980469 C 624.554688 281.113281 624.691406 281.207031 624.847656 281.265625 C 625.007812 281.324219 625.171875 281.335938 625.339844 281.308594 C 625.507812 281.28125 625.65625 281.210938 625.789062 281.101562 C 625.921875 280.996094 626.019531 280.859375 626.082031 280.703125 C 630.375 269.53125 633.125 257.917969 634.328125 245.851562 C 636.492188 224.261719 635.59375 202.90625 631.632812 181.785156 C 630.59375 176.253906 629.132812 170.996094 627.257812 166.011719 C 624.234375 158 618.65625 154.285156 610.527344 154.867188 C 605.378906 155.246094 600.296875 156.441406 595.28125 158.445312 C 575.398438 166.410156 559.894531 179.152344 545.878906 195.519531 C 544.753906 196.835938 543.140625 197.632812 541.050781 197.910156 C 539.585938 195.507812 539.628906 192.980469 541.179688 190.320312 C 542.992188 187.203125 545.566406 183.972656 548.902344 180.621094 C 558.796875 170.710938 570.378906 162.34375 583.648438 155.519531 C 592.769531 150.832031 603.714844 147.019531 613.785156 147.429688 C 628.984375 148.046875 635.390625 163.003906 638.179688 175.621094 C 639.882812 183.296875 641.042969 191.066406 641.65625 198.925781 C 643.910156 227.640625 642.789062 257.980469 632.453125 284.175781 C 630.597656 288.886719 626.035156 293.503906 621.414062 288.011719 C 616.828125 282.554688 612.023438 277.273438 606.945312 272.203125 C 604.132812 269.390625 601.703125 266.652344 599.667969 263.996094 C 597.832031 261.601562 597.59375 259.015625 598.953125 256.242188 Z M 598.953125 256.242188 " fill-opacity="1" fill-rule="nonzero"/><path fill="#ffcfba" d="M 598.953125 256.242188 C 594.972656 255.449219 591.34375 253.703125 588.070312 251.007812 C 587.695312 250.703125 587.625 250.761719 587.859375 251.179688 C 587.921875 251.28125 587.949219 251.390625 587.941406 251.507812 C 587.933594 251.640625 587.878906 251.664062 587.777344 251.578125 C 583.101562 247.464844 578.8125 244.382812 574.910156 242.332031 C 573.367188 241.523438 572.074219 240.398438 571.023438 238.949219 C 570.890625 238.765625 570.710938 238.640625 570.488281 238.578125 C 568.992188 238.128906 567.726562 237.222656 566.683594 235.863281 C 566.386719 235.480469 566.007812 235.210938 565.539062 235.058594 C 565.167969 234.941406 564.855469 234.730469 564.605469 234.425781 C 563.214844 232.773438 561.6875 231.347656 560.03125 230.160156 C 559.457031 229.75 558.921875 229.292969 558.421875 228.796875 C 557.714844 228.089844 556.882812 227.660156 555.925781 227.511719 C 555.644531 227.46875 555.414062 227.34375 555.226562 227.140625 C 554.425781 226.285156 553.511719 225.710938 552.484375 225.414062 C 552.132812 225.3125 551.882812 225.097656 551.726562 224.761719 C 551.367188 223.976562 550.832031 223.5 550.117188 223.328125 C 549.6875 223.234375 549.347656 223.011719 549.101562 222.664062 C 548.460938 221.785156 547.617188 221.328125 546.570312 221.289062 C 546.195312 221.273438 545.859375 221.144531 545.566406 220.902344 C 544.0625 219.691406 542.609375 218.394531 541.203125 217.019531 C 537.671875 213.578125 536.449219 209.53125 537.539062 204.882812 C 537.785156 203.8125 538.351562 202.636719 539.230469 201.363281 C 540.015625 200.210938 540.621094 199.0625 541.050781 197.910156 C 543.140625 197.632812 544.753906 196.835938 545.878906 195.519531 C 559.894531 179.152344 575.398438 166.410156 595.28125 158.445312 C 600.296875 156.441406 605.378906 155.246094 610.527344 154.867188 C 618.65625 154.285156 624.234375 158 627.257812 166.011719 C 629.132812 170.996094 630.59375 176.253906 631.632812 181.785156 C 635.59375 202.90625 636.492188 224.261719 634.328125 245.851562 C 633.125 257.917969 630.375 269.53125 626.082031 280.703125 C 626.019531 280.859375 625.921875 280.996094 625.789062 281.101562 C 625.65625 281.210938 625.507812 281.28125 625.339844 281.308594 C 625.171875 281.335938 625.007812 281.324219 624.847656 281.265625 C 624.691406 281.207031 624.554688 281.113281 624.449219 280.980469 C 618.769531 274.226562 612.421875 267.328125 605.40625 260.285156 C 603.429688 258.304688 601.28125 256.957031 598.953125 256.242188 Z M 598.953125 256.242188 " fill-opacity="1" fill-rule="nonzero"/><path fill="#ffe6c8" d="M 457.40625 373.460938 C 453.589844 379.578125 451.246094 386.742188 450.382812 394.949219 C 449.636719 402.097656 451.167969 408.390625 454.980469 413.824219 C 463.402344 425.847656 475.3125 430.804688 490.707031 428.691406 C 495.847656 431.035156 500.769531 433.539062 505.476562 436.199219 C 508.601562 437.953125 511.300781 440.183594 513.574219 442.890625 C 517.199219 447.203125 520.546875 451.796875 523.617188 456.671875 C 529.335938 465.742188 532.242188 476.210938 534.890625 486.667969 C 539.683594 505.652344 537.152344 525.484375 528.425781 542.996094 C 525.003906 549.882812 520.011719 555.519531 513.445312 559.910156 C 503.445312 552.625 491.664062 547.925781 479.074219 548.371094 C 460.910156 549 447.632812 557.246094 439.242188 573.109375 C 437.460938 576.476562 436.195312 579.910156 435.449219 583.417969 C 431.644531 601.488281 435.109375 617.953125 445.84375 632.816406 C 449.859375 638.378906 454.210938 643.164062 458.902344 647.167969 C 460.472656 648.503906 462.464844 649.691406 464.875 650.722656 C 469.558594 654.59375 474.355469 658.277344 479.273438 661.777344 C 489.632812 669.15625 496.398438 686.132812 499.210938 698.503906 C 502.617188 713.535156 503.699219 729.113281 502.453125 745.242188 C 500.902344 765.390625 494.21875 787.132812 481.464844 803.234375 C 465.421875 823.511719 446.136719 840.355469 420.328125 841.792969 C 411.65625 842.265625 403.527344 842.042969 395.945312 841.125 C 393.082031 840.777344 390.425781 839.859375 387.976562 838.375 C 386.15625 837.285156 384.191406 836.542969 382.082031 836.148438 C 376.800781 835.160156 371.511719 835.050781 366.214844 835.820312 L 323.128906 831.378906 C 315.917969 829.996094 308.777344 829.039062 301.707031 828.511719 C 292.296875 827.804688 286.148438 827.230469 283.261719 826.785156 C 264.019531 823.816406 245.324219 818.777344 227.175781 811.664062 C 223.644531 810.28125 219.355469 807.71875 214.308594 803.980469 C 211.875 802.179688 209.8125 800.054688 208.125 797.617188 C 204.796875 792.796875 201.542969 788 198.371094 783.226562 C 190.265625 771.023438 184.320312 757.453125 180.53125 742.515625 C 177.613281 731.042969 177.625 718.777344 178.828125 707.164062 C 180.132812 694.472656 182.0625 682.390625 184.613281 670.917969 C 187.3125 658.761719 190.890625 646.519531 195.347656 634.191406 C 200.65625 619.546875 205.160156 604.625 209.804688 589.628906 C 213.601562 577.394531 215.710938 566.699219 216.140625 557.535156 C 216.1875 556.445312 216.179688 555.425781 216.117188 554.480469 C 215.90625 551.390625 212.835938 548.707031 210.398438 547.15625 C 206.074219 544.40625 201.660156 541.792969 197.15625 539.320312 L 197.566406 537.957031 C 197.683594 537.5625 197.613281 537.199219 197.355469 536.875 C 186.496094 523.007812 181.78125 507.027344 183.214844 488.933594 C 185.027344 466.117188 192.96875 446.660156 207.039062 430.554688 C 213.371094 423.3125 221.78125 416.992188 232.273438 411.597656 C 236.53125 412.453125 239.472656 412.980469 241.105469 413.183594 C 253.871094 414.769531 265.609375 407.902344 273.132812 397.851562 C 277.070312 392.589844 278.875 386.078125 278.546875 378.324219 C 278.105469 367.628906 274.714844 358.597656 268.375 351.226562 C 269.363281 342.523438 272.855469 335.164062 278.851562 329.15625 C 285.003906 322.992188 292.167969 317.34375 300.34375 312.203125 C 309.300781 306.585938 318.378906 301.453125 328.390625 298.890625 C 335.3125 297.117188 342.878906 295.886719 351.082031 295.195312 C 371.394531 293.503906 389.714844 297.363281 407.4375 307.597656 C 420.921875 315.394531 432.199219 324.398438 441.257812 334.613281 C 445.546875 339.441406 449.054688 344.675781 451.785156 350.316406 C 455.066406 357.09375 456.941406 364.808594 457.40625 373.460938 Z M 357.09375 415.046875 C 363.160156 423.488281 374.324219 429.367188 385.058594 427.558594 C 393.214844 426.195312 400.355469 419.828125 400.667969 411.363281 C 400.75 409.523438 399.96875 406.96875 397.972656 406.421875 C 394.542969 405.488281 393.433594 409.277344 392.652344 411.726562 C 391.195312 416.34375 385.875 419.1875 381.429688 419.292969 C 373.238281 419.480469 363.183594 413.917969 361.792969 405.429688 C 360.988281 400.566406 353.859375 399.496094 351.75 404.207031 C 348.109375 412.296875 339.882812 416.667969 331.332031 415.375 C 326.945312 414.710938 322.613281 411.621094 322.066406 406.992188 C 321.855469 405.195312 322.089844 402.070312 320.691406 400.753906 C 317.65625 397.875 314.367188 401.105469 313.910156 404.289062 C 312.640625 413.125 318.507812 420.121094 326.5 423 C 337.246094 426.859375 347.945312 423.351562 355.667969 414.96875 C 355.761719 414.867188 355.871094 414.789062 356 414.738281 C 356.128906 414.683594 356.261719 414.664062 356.398438 414.671875 C 356.539062 414.679688 356.667969 414.714844 356.789062 414.78125 C 356.910156 414.847656 357.011719 414.9375 357.09375 415.046875 Z M 357.09375 415.046875 " fill-opacity="1" fill-rule="nonzero"/><path fill="#bd6d4c" d="M 268.375 351.226562 C 274.714844 358.597656 278.105469 367.628906 278.546875 378.324219 C 278.875 386.078125 277.070312 392.589844 273.132812 397.851562 C 265.609375 407.902344 253.871094 414.769531 241.105469 413.183594 C 239.472656 412.980469 236.53125 412.453125 232.273438 411.597656 C 224.191406 407.390625 217.421875 402.65625 213.585938 394.355469 C 205.429688 376.703125 211.34375 357.988281 226.933594 346.5625 C 231.941406 342.902344 237.546875 340.917969 243.746094 340.605469 C 250.480469 340.28125 256.605469 342.171875 262.121094 346.285156 C 264.234375 347.863281 266.320312 349.507812 268.375 351.226562 Z M 268.375 351.226562 " fill-opacity="1" fill-rule="nonzero"/><path fill="#bd6d4c" d="M 490.707031 428.691406 C 475.3125 430.804688 463.402344 425.847656 454.980469 413.824219 C 451.167969 408.390625 449.636719 402.097656 450.382812 394.949219 C 451.246094 386.742188 453.589844 379.578125 457.40625 373.460938 C 462.363281 366.839844 467.660156 362.160156 473.296875 359.421875 C 485.175781 353.652344 498.21875 357.253906 507.554688 366.242188 C 520.515625 378.707031 523.769531 398.144531 513.644531 413.371094 C 508.527344 421.058594 500.878906 426.164062 490.707031 428.691406 Z M 490.707031 428.691406 " fill-opacity="1" fill-rule="nonzero"/><path fill="#f79753" d="M 163.320312 371.292969 C 163.726562 371.539062 164.078125 371.847656 164.378906 372.214844 C 164.675781 372.578125 164.910156 372.984375 165.070312 373.425781 C 165.234375 373.871094 165.316406 374.324219 165.324219 374.796875 C 165.328125 375.265625 165.257812 375.722656 165.105469 376.164062 C 161.125 387.910156 156.472656 400.515625 151.152344 413.976562 C 149.871094 417.242188 147.546875 421.925781 143.171875 418.535156 C 141.65625 417.34375 141.945312 415.375 142.519531 413.800781 C 147.242188 400.992188 152.449219 387.941406 158.140625 374.648438 C 158.996094 372.644531 160.453125 371.476562 162.503906 371.140625 C 162.800781 371.09375 163.074219 371.144531 163.320312 371.292969 Z M 163.320312 371.292969 " fill-opacity="1" fill-rule="nonzero"/><path fill="#f79753" d="M 182.96875 374.777344 C 183.40625 376.183594 183.398438 377.574219 182.945312 378.941406 C 177.5625 395.410156 172.464844 409.804688 167.648438 422.125 C 167.488281 422.539062 167.25 422.898438 166.9375 423.210938 C 163.710938 426.40625 161.605469 425.683594 160.625 421.054688 C 160.503906 420.453125 160.53125 419.863281 160.71875 419.28125 C 165.355469 404.839844 170.351562 391.050781 175.710938 377.914062 C 176.414062 376.1875 177.882812 373.53125 179.808594 373.019531 C 180.132812 372.933594 180.464844 372.914062 180.800781 372.957031 C 181.136719 373 181.449219 373.101562 181.746094 373.265625 C 182.039062 373.429688 182.292969 373.644531 182.503906 373.90625 C 182.714844 374.164062 182.871094 374.457031 182.96875 374.777344 Z M 182.96875 374.777344 " fill-opacity="1" fill-rule="nonzero"/><path fill="#f79753" d="M 199.171875 378.746094 L 199.324219 378.800781 C 199.808594 378.972656 200.238281 379.230469 200.617188 379.574219 C 200.996094 379.917969 201.296875 380.320312 201.515625 380.785156 C 201.734375 381.246094 201.855469 381.734375 201.878906 382.246094 C 201.90625 382.757812 201.832031 383.253906 201.660156 383.734375 L 188.460938 420.570312 C 188.285156 421.054688 188.027344 421.484375 187.683594 421.863281 C 187.339844 422.242188 186.9375 422.542969 186.472656 422.757812 C 186.011719 422.976562 185.523438 423.101562 185.011719 423.125 C 184.5 423.148438 184.003906 423.078125 183.523438 422.902344 L 183.367188 422.847656 C 182.886719 422.675781 182.457031 422.417969 182.074219 422.074219 C 181.695312 421.730469 181.398438 421.328125 181.179688 420.863281 C 180.960938 420.402344 180.835938 419.914062 180.8125 419.402344 C 180.789062 418.894531 180.863281 418.398438 181.035156 417.914062 L 194.234375 381.078125 C 194.40625 380.59375 194.664062 380.164062 195.007812 379.785156 C 195.351562 379.40625 195.753906 379.109375 196.21875 378.890625 C 196.683594 378.671875 197.167969 378.546875 197.679688 378.523438 C 198.191406 378.5 198.6875 378.574219 199.171875 378.746094 Z M 199.171875 378.746094 " fill-opacity="1" fill-rule="nonzero"/><path fill="#f79753" d="M 558.027344 404.4375 C 552.039062 419.433594 545.867188 434.378906 539.578125 448.90625 C 538.75 450.820312 536.863281 453.382812 534.386719 452.554688 C 532.230469 451.832031 531.574219 449.96875 532.160156 447.785156 C 533.28125 443.621094 534.871094 439.109375 536.929688 434.25 C 543.945312 417.703125 548.757812 406.511719 551.363281 400.671875 C 552.023438 399.1875 553.140625 397.917969 554.710938 396.859375 C 556.414062 395.730469 558.609375 396.617188 558.890625 398.644531 C 559.136719 400.433594 558.851562 402.363281 558.027344 404.4375 Z M 558.027344 404.4375 " fill-opacity="1" fill-rule="nonzero"/><path fill="#f79753" d="M 538.484375 402.609375 C 537.851562 406.398438 536.253906 409.753906 534.832031 413.335938 C 530.585938 423.984375 526.597656 433.894531 522.871094 443.066406 C 522.226562 444.667969 520.882812 445.4375 518.835938 445.375 C 518.492188 445.359375 518.1875 445.25 517.914062 445.046875 C 515.9375 443.59375 515.421875 441.558594 516.363281 438.9375 C 520.34375 427.910156 524.859375 416.21875 529.90625 403.867188 C 531.015625 401.128906 533.382812 397.980469 536.804688 399.496094 C 537.09375 399.625 537.359375 399.796875 537.59375 400.011719 C 537.828125 400.230469 538.019531 400.480469 538.171875 400.761719 C 538.324219 401.042969 538.425781 401.34375 538.480469 401.65625 C 538.535156 401.972656 538.535156 402.292969 538.484375 402.609375 Z M 538.484375 402.609375 " fill-opacity="1" fill-rule="nonzero"/><path fill="#bd6d4c" d="M 357.09375 415.046875 C 357.011719 414.9375 356.910156 414.847656 356.789062 414.78125 C 356.667969 414.714844 356.539062 414.679688 356.398438 414.671875 C 356.261719 414.664062 356.128906 414.683594 356 414.738281 C 355.871094 414.789062 355.761719 414.867188 355.667969 414.96875 C 347.945312 423.351562 337.246094 426.859375 326.5 423 C 318.507812 420.121094 312.640625 413.125 313.910156 404.289062 C 314.367188 401.105469 317.65625 397.875 320.691406 400.753906 C 322.089844 402.070312 321.855469 405.195312 322.066406 406.992188 C 322.613281 411.621094 326.945312 414.710938 331.332031 415.375 C 339.882812 416.667969 348.109375 412.296875 351.75 404.207031 C 353.859375 399.496094 360.988281 400.566406 361.792969 405.429688 C 363.183594 413.917969 373.238281 419.480469 381.429688 419.292969 C 385.875 419.1875 391.195312 416.34375 392.652344 411.726562 C 393.433594 409.277344 394.542969 405.488281 397.972656 406.421875 C 399.96875 406.96875 400.75 409.523438 400.667969 411.363281 C 400.355469 419.828125 393.214844 426.195312 385.058594 427.558594 C 374.324219 429.367188 363.160156 423.488281 357.09375 415.046875 Z M 357.09375 415.046875 " fill-opacity="1" fill-rule="nonzero"/><path fill="#f79753" d="M 557.441406 434.378906 C 561.992188 422.300781 565.792969 413.042969 568.839844 406.609375 C 569.003906 406.265625 569.222656 405.957031 569.496094 405.6875 C 573.46875 401.636719 575.671875 402.050781 576.097656 406.921875 C 576.136719 407.320312 576.085938 407.707031 575.945312 408.089844 L 561.363281 447.765625 C 560.492188 450.109375 558.847656 450.960938 556.425781 450.316406 C 556.226562 450.269531 556.042969 450.179688 555.878906 450.050781 C 554.417969 448.945312 553.8125 447.53125 554.070312 445.804688 C 554.476562 443.085938 555.597656 439.277344 557.441406 434.378906 Z M 557.441406 434.378906 " fill-opacity="1" fill-rule="nonzero"/><path fill="#f79753" d="M 165.117188 525.808594 L 197.15625 539.320312 C 201.660156 541.792969 206.074219 544.40625 210.398438 547.15625 C 212.835938 548.707031 215.90625 551.390625 216.117188 554.480469 C 216.179688 555.425781 216.1875 556.445312 216.140625 557.535156 C 214.054688 558.542969 212.105469 558.328125 210.292969 556.890625 C 200.421875 549.082031 188.148438 542.085938 175.875 539.019531 C 174.070312 538.566406 172.617188 538.070312 171.511719 537.527344 Z M 165.117188 525.808594 " fill-opacity="1" fill-rule="nonzero"/><path fill="#ffcb8d" d="M 171.511719 537.527344 C 172.617188 538.070312 174.070312 538.566406 175.875 539.019531 C 188.148438 542.085938 200.421875 549.082031 210.292969 556.890625 C 212.105469 558.328125 214.054688 558.542969 216.140625 557.535156 C 215.710938 566.699219 213.601562 577.394531 209.804688 589.628906 C 205.160156 604.625 200.65625 619.546875 195.347656 634.191406 C 190.890625 646.519531 187.3125 658.761719 184.613281 670.917969 C 182.0625 682.390625 180.132812 694.472656 178.828125 707.164062 C 177.625 718.777344 177.613281 731.042969 180.53125 742.515625 C 184.320312 757.453125 190.265625 771.023438 198.371094 783.226562 C 201.542969 788 204.796875 792.796875 208.125 797.617188 C 209.8125 800.054688 211.875 802.179688 214.308594 803.980469 C 219.355469 807.71875 223.644531 810.28125 227.175781 811.664062 C 245.324219 818.777344 264.019531 823.816406 283.261719 826.785156 C 286.148438 827.230469 292.296875 827.804688 301.707031 828.511719 C 308.777344 829.039062 315.917969 829.996094 323.128906 831.378906 C 314.355469 836.019531 306.96875 840.34375 297.191406 844.078125 C 291.398438 846.285156 286.519531 847.628906 282.5625 848.109375 C 264.359375 850.300781 245.984375 849.464844 229.613281 841.023438 C 220.503906 836.324219 211.601562 828.699219 209.464844 818.648438 C 208.421875 813.75 208.296875 808.957031 209.082031 804.261719 C 209.164062 803.761719 209.125 803.269531 208.960938 802.789062 C 208.796875 802.308594 208.53125 801.894531 208.160156 801.542969 C 198.800781 792.808594 190.820312 782.5625 184.21875 770.8125 C 174.777344 754.035156 171.300781 734.503906 171.6875 715.011719 C 172.128906 693.332031 174.042969 671.898438 177.425781 650.710938 C 177.824219 648.226562 177.609375 645.851562 176.785156 643.589844 C 176.226562 642.035156 175.371094 640.789062 174.21875 639.859375 C 159.804688 628.167969 148.394531 614.109375 139.988281 597.6875 C 132.519531 583.101562 131.667969 566.382812 140.289062 552.101562 C 146.816406 541.28125 157.222656 536.421875 171.511719 537.527344 Z M 171.511719 537.527344 " fill-opacity="1" fill-rule="nonzero"/><path fill="#f79753" d="M 513.445312 559.910156 C 518.953125 564.097656 528.8125 572.703125 529.183594 579.964844 C 529.203125 580.3125 529.144531 580.652344 529.015625 580.976562 C 528.882812 581.300781 528.691406 581.582031 528.4375 581.820312 C 528.179688 582.058594 527.886719 582.234375 527.554688 582.34375 C 527.222656 582.453125 526.882812 582.488281 526.535156 582.449219 C 525.445312 582.324219 524.519531 581.808594 523.757812 580.898438 C 520.773438 577.300781 517.710938 573.949219 514.578125 570.847656 C 504.660156 561.03125 489.316406 553.859375 475.222656 556.121094 C 460.234375 558.523438 450.046875 566.511719 444.65625 580.082031 C 435.671875 602.734375 447.246094 627.570312 465.363281 642.257812 C 466.695312 643.339844 467.660156 644.660156 468.257812 646.222656 C 468.398438 646.597656 468.390625 646.964844 468.234375 647.332031 C 467.644531 648.667969 466.523438 649.796875 464.875 650.722656 C 462.464844 649.691406 460.472656 648.503906 458.902344 647.167969 C 454.210938 643.164062 449.859375 638.378906 445.84375 632.816406 C 435.109375 617.953125 431.644531 601.488281 435.449219 583.417969 C 436.195312 579.910156 437.460938 576.476562 439.242188 573.109375 C 447.632812 557.246094 460.910156 549 479.074219 548.371094 C 491.664062 547.925781 503.445312 552.625 513.445312 559.910156 Z M 513.445312 559.910156 " fill-opacity="1" fill-rule="nonzero"/><path fill="#ffcb8d" d="M 611.25 782.855469 C 613.164062 777.761719 614.542969 772.523438 616.445312 767.417969 C 617.867188 763.601562 619.132812 759.328125 620.234375 754.59375 C 622.289062 745.734375 623.894531 737.570312 625.054688 730.109375 C 626.535156 720.644531 626.746094 710.453125 627.386719 700.765625 C 627.410156 700.429688 627.546875 700.148438 627.796875 699.925781 L 630.863281 697.113281 C 634.808594 695.210938 637.246094 693.820312 638.179688 692.941406 C 642.21875 689.128906 646.683594 685.46875 650.265625 681.269531 C 657.199219 673.140625 662.492188 664.179688 666.148438 654.382812 C 667.851562 649.824219 670.695312 645.757812 672.003906 641.199219 C 675.394531 629.367188 678.261719 620.328125 680.601562 614.078125 C 685.851562 600.054688 700.039062 583.871094 717.097656 586.691406 C 746.976562 591.625 740.246094 637.5625 735.195312 657.648438 C 732.191406 669.625 729.308594 679.132812 726.546875 686.167969 C 720.097656 702.664062 711.859375 717.238281 701.546875 731.160156 C 695.558594 739.226562 690.90625 745.816406 682.574219 752.414062 C 675.480469 758.03125 669.386719 762.429688 664.292969 765.601562 C 661.710938 767.214844 657.136719 769.582031 650.570312 772.699219 C 637.773438 778.773438 625.265625 782.027344 611.25 782.855469 Z M 611.25 782.855469 " fill-opacity="1" fill-rule="nonzero"/><path fill="#f79753" d="M 619.5 684.335938 C 622.851562 689.1875 626.640625 693.445312 630.863281 697.113281 L 627.796875 699.925781 C 627.546875 700.148438 627.410156 700.429688 627.386719 700.765625 C 626.746094 710.453125 626.535156 720.644531 625.054688 730.109375 C 623.894531 737.570312 622.289062 745.734375 620.234375 754.59375 C 619.132812 759.328125 617.867188 763.601562 616.445312 767.417969 C 614.542969 772.523438 613.164062 777.761719 611.25 782.855469 L 600.109375 785.78125 C 604.878906 775.675781 608.679688 765.382812 611.519531 754.898438 C 615.199219 741.300781 617.667969 727.511719 618.929688 713.519531 C 619.757812 704.296875 619.535156 694.082031 619.5 684.335938 Z M 619.5 684.335938 " fill-opacity="1" fill-rule="nonzero"/></svg>